<?xml version="1.0" encoding="us-ascii" standalone="no"?><svg xmlns="http://www.w3.org/2000/svg" xmlns:xlink="http://www.w3.org/1999/xlink" contentStyleType="text/css" height="445px" preserveAspectRatio="none" style="width:784px;height:445px;background:#FFFFFF;" version="1.1" viewBox="0 0 784 445" width="784px" zoomAndPan="magnify"><defs/><g><rect fill="#FEECCD" height="353.1953" style="stroke:#7A003C;stroke-width:1.0;" width="10" x="85" y="67.7988"/><rect fill="#FEECCD" height="31.4883" style="stroke:#7A003C;stroke-width:1.0;" width="10" x="256.5" y="107.1094"/><rect fill="#FEECCD" height="31.4883" style="stroke:#7A003C;stroke-width:1.0;" width="10" x="413.5" y="177.9082"/><rect fill="#FEECCD" height="16.1777" style="stroke:#7A003C;stroke-width:1.0;" width="10" x="537.5" y="248.707"/><rect fill="#FEECCD" height="14" style="stroke:#7A003C;stroke-width:1.0;" width="10" x="537.5" y="294.1953"/><rect fill="#FEECCD" height="16.1777" style="stroke:#7A003C;stroke-width:1.0;" width="10" x="684" y="347.5059"/><rect fill="#FEECCD" height="14" style="stroke:#7A003C;stroke-width:1.0;" width="10" x="684" y="392.9941"/><line style="stroke:#7A003C;stroke-width:0.5;stroke-dasharray:5.0,5.0;" x1="90" x2="90" y1="36.4883" y2="438.9941"/><line style="stroke:#7A003C;stroke-width:0.5;stroke-dasharray:5.0,5.0;" x1="261" x2="261" y1="106.543" y2="438.9941"/><line style="stroke:#7A003C;stroke-width:0.5;stroke-dasharray:5.0,5.0;" x1="418" x2="418" y1="177.3418" y2="438.9941"/><line style="stroke:#7A003C;stroke-width:0.5;stroke-dasharray:5.0,5.0;" x1="542" x2="542" y1="248.1406" y2="438.9941"/><line style="stroke:#7A003C;stroke-width:0.5;stroke-dasharray:5.0,5.0;" x1="689" x2="689" y1="346.9395" y2="438.9941"/><rect fill="#FEECCD" height="30.4883" rx="5" ry="5" style="stroke:#7A003C;stroke-width:0.5;" width="62" x="59" y="5"/><text fill="#000000" font-family="sans-serif" font-size="14" lengthAdjust="spacing" textLength="48" x="66" y="25.5352">_: Main</text><rect fill="#FEECCD" height="353.1953" style="stroke:#7A003C;stroke-width:1.0;" width="10" x="85" y="67.7988"/><rect fill="#FEECCD" height="31.4883" style="stroke:#7A003C;stroke-width:1.0;" width="10" x="256.5" y="107.1094"/><rect fill="#FEECCD" height="31.4883" style="stroke:#7A003C;stroke-width:1.0;" width="10" x="413.5" y="177.9082"/><rect fill="#FEECCD" height="16.1777" style="stroke:#7A003C;stroke-width:1.0;" width="10" x="537.5" y="248.707"/><rect fill="#FEECCD" height="14" style="stroke:#7A003C;stroke-width:1.0;" width="10" x="537.5" y="294.1953"/><rect fill="#FEECCD" height="16.1777" style="stroke:#7A003C;stroke-width:1.0;" width="10" x="684" y="347.5059"/><rect fill="#FEECCD" height="14" style="stroke:#7A003C;stroke-width:1.0;" width="10" x="684" y="392.9941"/><polygon fill="#7A003C" points="73,63.7988,83,67.7988,73,71.7988,77,67.7988" style="stroke:#7A003C;stroke-width:1.0;"/><line style="stroke:#7A003C;stroke-width:1.0;" x1="0" x2="79" y1="67.7988" y2="67.7988"/><text fill="#000000" font-family="sans-serif" font-size="13" lengthAdjust="spacing" textLength="66" x="7" y="63.0566">main(args)</text><polygon fill="#7A003C" points="169,93.1094,179,97.1094,169,101.1094,173,97.1094" style="stroke:#7A003C;stroke-width:1.0;"/><line style="stroke:#7A003C;stroke-width:1.0;" x1="95" x2="175" y1="97.1094" y2="97.1094"/><text fill="#000000" font-family="sans-serif" font-size="13" lengthAdjust="spacing" text-decoration="underline" textLength="62" x="102" y="92.3672">load(args)</text><rect fill="#FEECCD" height="30.4883" rx="5" ry="5" style="stroke:#7A003C;stroke-width:0.5;" width="161" x="181" y="75.7988"/><text fill="#000000" font-family="sans-serif" font-size="14" lengthAdjust="spacing" textLength="147" x="188" y="96.334">config: Configuration</text><polygon fill="#7A003C" points="106,134.5977,96,138.5977,106,142.5977,102,138.5977" style="stroke:#7A003C;stroke-width:1.0;"/><line style="stroke:#7A003C;stroke-width:1.0;stroke-dasharray:2.0,2.0;" x1="100" x2="260.5" y1="138.5977" y2="138.5977"/><text fill="#000000" font-family="sans-serif" font-size="13" lengthAdjust="spacing" textLength="7" x="112" y="133.8555">c</text><polygon fill="#7A003C" points="340,163.9082,350,167.9082,340,171.9082,344,167.9082" style="stroke:#7A003C;stroke-width:1.0;"/><line style="stroke:#7A003C;stroke-width:1.0;" x1="95" x2="346" y1="167.9082" y2="167.9082"/><text fill="#000000" font-family="sans-serif" font-size="13" lengthAdjust="spacing" textLength="80" x="102" y="163.166">this(c.seed())</text><rect fill="#FEECCD" height="30.4883" rx="5" ry="5" style="stroke:#7A003C;stroke-width:0.5;" width="133" x="352" y="146.5977"/><text fill="#000000" font-family="sans-serif" font-size="14" lengthAdjust="spacing" textLength="119" x="359" y="167.1328">random: Random</text><polygon fill="#7A003C" points="106,205.3965,96,209.3965,106,213.3965,102,209.3965" style="stroke:#7A003C;stroke-width:1.0;"/><line style="stroke:#7A003C;stroke-width:1.0;stroke-dasharray:2.0,2.0;" x1="100" x2="417.5" y1="209.3965" y2="209.3965"/><text fill="#000000" font-family="sans-serif" font-size="13" lengthAdjust="spacing" textLength="48" x="112" y="204.6543">random</text><polygon fill="#7A003C" points="483,234.707,493,238.707,483,242.707,487,238.707" style="stroke:#7A003C;stroke-width:1.0;"/><line style="stroke:#7A003C;stroke-width:1.0;" x1="95" x2="489" y1="238.707" y2="238.707"/><text fill="#000000" font-family="sans-serif" font-size="13" lengthAdjust="spacing" textLength="137" x="102" y="233.9648">this(c.width, c.height)</text><rect fill="#FEECCD" height="30.4883" rx="5" ry="5" style="stroke:#7A003C;stroke-width:0.5;" width="95" x="495" y="217.3965"/><text fill="#000000" font-family="sans-serif" font-size="14" lengthAdjust="spacing" textLength="81" x="502" y="237.9316">maze: Maze</text><polygon fill="#7A003C" points="106,260.8848,96,264.8848,106,268.8848,102,264.8848" style="stroke:#7A003C;stroke-width:1.0;"/><line style="stroke:#7A003C;stroke-width:1.0;stroke-dasharray:2.0,2.0;" x1="100" x2="541.5" y1="264.8848" y2="264.8848"/><polygon fill="#7A003C" points="525.5,290.1953,535.5,294.1953,525.5,298.1953,529.5,294.1953" style="stroke:#7A003C;stroke-width:1.0;"/><line style="stroke:#7A003C;stroke-width:1.0;" x1="95" x2="531.5" y1="294.1953" y2="294.1953"/><text fill="#000000" font-family="sans-serif" font-size="13" lengthAdjust="spacing" textLength="89" x="102" y="289.4531">carve(random)</text><polygon fill="#7A003C" points="106,304.1953,96,308.1953,106,312.1953,102,308.1953" style="stroke:#7A003C;stroke-width:1.0;"/><line style="stroke:#7A003C;stroke-width:1.0;stroke-dasharray:2.0,2.0;" x1="100" x2="541.5" y1="308.1953" y2="308.1953"/><polygon fill="#7A003C" points="588,333.5059,598,337.5059,588,341.5059,592,337.5059" style="stroke:#7A003C;stroke-width:1.0;"/><line style="stroke:#7A003C;stroke-width:1.0;" x1="95" x2="594" y1="337.5059" y2="337.5059"/><text fill="#000000" font-family="sans-serif" font-size="13" lengthAdjust="spacing" textLength="65" x="102" y="332.7637">this(maze)</text><rect fill="#FEECCD" height="30.4883" rx="5" ry="5" style="stroke:#7A003C;stroke-width:0.5;" width="178" x="600" y="316.1953"/><text fill="#000000" font-family="sans-serif" font-size="14" lengthAdjust="spacing" textLength="164" x="607" y="336.7305">exporter: MazeExporter</text><polygon fill="#7A003C" points="106,359.6836,96,363.6836,106,367.6836,102,363.6836" style="stroke:#7A003C;stroke-width:1.0;"/><line style="stroke:#7A003C;stroke-width:1.0;stroke-dasharray:2.0,2.0;" x1="100" x2="688" y1="363.6836" y2="363.6836"/><polygon fill="#7A003C" points="672,388.9941,682,392.9941,672,396.9941,676,392.9941" style="stroke:#7A003C;stroke-width:1.0;"/><line style="stroke:#7A003C;stroke-width:1.0;" x1="95" x2="678" y1="392.9941" y2="392.9941"/><text fill="#000000" font-family="sans-serif" font-size="13" lengthAdjust="spacing" textLength="177" x="102" y="388.252">export(out, humanReadable)</text><polygon fill="#7A003C" points="106,402.9941,96,406.9941,106,410.9941,102,406.9941" style="stroke:#7A003C;stroke-width:1.0;"/><line style="stroke:#7A003C;stroke-width:1.0;stroke-dasharray:2.0,2.0;" x1="100" x2="688" y1="406.9941" y2="406.9941"/><polygon fill="#7A003C" points="11,416.9941,1,420.9941,11,424.9941,7,420.9941" style="stroke:#7A003C;stroke-width:1.0;"/><line style="stroke:#7A003C;stroke-width:1.0;stroke-dasharray:2.0,2.0;" x1="5" x2="89" y1="420.9941" y2="420.9941"/><!--SRC=[VP6nSeCm38PtFuMQ2UvIkZDqoMNCmjg1KsqLV0SsP-IqvUaBjaC2kQi7ouPFl_JBBzh8pYk2uctmVLUC_DkH4EZPecHzHIQmHeW17Mkf1pGCXxg42sfp01p3OVjNMlEbcn9E8Ng7h6rauvSjxT0esvTGXHYmUDnYFKwqL9qeLPre2z3FO1sJYz0vtG9ykmZnyVeU6YwXd_SCNJFcGi2yfAF5QkeGqbfOc7DEoL9TTnPLpAlh5NF4tXcGZqh9n5wfIdQvrMCcYv58PNc-LtBtv2GN3E_5Bc4eIUfRAswF88kMTDFoNbCy9qfqLyfYhIVyiVWwm7q3vtNeeOdbaVwjU-VZSsNMyn5QtwEf21L-TYd_raICVm00]--></g></svg>