<?xml version="1.0" encoding="us-ascii" standalone="no"?><svg xmlns="http://www.w3.org/2000/svg" xmlns:xlink="http://www.w3.org/1999/xlink" contentStyleType="text/css" height="631px" preserveAspectRatio="none" style="width:942px;height:631px;background:#FFFFFF;" version="1.1" viewBox="0 0 942 631" width="942px" zoomAndPan="magnify"><defs/><g><rect fill="#FEECCD" height="538.6152" style="stroke:#7A003C;stroke-width:1.0;" width="10" x="85" y="67.7988"/><rect fill="#FEECCD" height="31.4883" style="stroke:#7A003C;stroke-width:1.0;" width="10" x="256.5" y="107.1094"/><rect fill="#FEECCD" height="16.1777" style="stroke:#7A003C;stroke-width:1.0;" width="10" x="394.5" y="248.707"/><rect fill="#FEECCD" height="156.1094" style="stroke:#7A003C;stroke-width:1.0;" width="10" x="394.5" y="294.1953"/><rect fill="#FEECCD" height="112.7988" style="stroke:#7A003C;stroke-width:1.0;" width="10" x="394.5" y="479.6152"/><rect fill="#FEECCD" height="16.1777" style="stroke:#7A003C;stroke-width:1.0;" width="10" x="528" y="333.5059"/><rect fill="#FEECCD" height="57.3105" style="stroke:#7A003C;stroke-width:1.0;" width="10" x="528" y="378.9941"/><rect fill="#FEECCD" height="31.4883" style="stroke:#7A003C;stroke-width:1.0;" width="10" x="677" y="177.9082"/><rect fill="#FEECCD" height="14" style="stroke:#7A003C;stroke-width:1.0;" width="10" x="677" y="408.3047"/><rect fill="#FEECCD" height="16.1777" style="stroke:#7A003C;stroke-width:1.0;" width="10" x="842.5" y="518.9258"/><rect fill="#FEECCD" height="14" style="stroke:#7A003C;stroke-width:1.0;" width="10" x="842.5" y="564.4141"/><line style="stroke:#7A003C;stroke-width:0.5;stroke-dasharray:5.0,5.0;" x1="90" x2="90" y1="36.4883" y2="624.4141"/><line style="stroke:#7A003C;stroke-width:0.5;stroke-dasharray:5.0,5.0;" x1="261" x2="261" y1="106.543" y2="624.4141"/><line style="stroke:#7A003C;stroke-width:0.5;stroke-dasharray:5.0,5.0;" x1="399" x2="399" y1="248.1406" y2="624.4141"/><line style="stroke:#7A003C;stroke-width:0.5;stroke-dasharray:5.0,5.0;" x1="532.5" x2="532.5" y1="332.9395" y2="624.4141"/><line style="stroke:#7A003C;stroke-width:0.5;stroke-dasharray:5.0,5.0;" x1="681.5" x2="681.5" y1="177.3418" y2="624.4141"/><line style="stroke:#7A003C;stroke-width:0.5;stroke-dasharray:5.0,5.0;" x1="847.5" x2="847.5" y1="518.3594" y2="624.4141"/><rect fill="#FEECCD" height="30.4883" rx="5" ry="5" style="stroke:#7A003C;stroke-width:0.5;" width="62" x="59" y="5"/><text fill="#000000" font-family="sans-serif" font-size="14" lengthAdjust="spacing" textLength="48" x="66" y="25.5352">_: Main</text><rect fill="#FEECCD" height="538.6152" style="stroke:#7A003C;stroke-width:1.0;" width="10" x="85" y="67.7988"/><rect fill="#FEECCD" height="31.4883" style="stroke:#7A003C;stroke-width:1.0;" width="10" x="256.5" y="107.1094"/><rect fill="#FEECCD" height="16.1777" style="stroke:#7A003C;stroke-width:1.0;" width="10" x="394.5" y="248.707"/><rect fill="#FEECCD" height="156.1094" style="stroke:#7A003C;stroke-width:1.0;" width="10" x="394.5" y="294.1953"/><rect fill="#FEECCD" height="112.7988" style="stroke:#7A003C;stroke-width:1.0;" width="10" x="394.5" y="479.6152"/><rect fill="#FEECCD" height="16.1777" style="stroke:#7A003C;stroke-width:1.0;" width="10" x="528" y="333.5059"/><rect fill="#FEECCD" height="57.3105" style="stroke:#7A003C;stroke-width:1.0;" width="10" x="528" y="378.9941"/><rect fill="#FEECCD" height="31.4883" style="stroke:#7A003C;stroke-width:1.0;" width="10" x="677" y="177.9082"/><rect fill="#FEECCD" height="14" style="stroke:#7A003C;stroke-width:1.0;" width="10" x="677" y="408.3047"/><rect fill="#FEECCD" height="16.1777" style="stroke:#7A003C;stroke-width:1.0;" width="10" x="842.5" y="518.9258"/><rect fill="#FEECCD" height="14" style="stroke:#7A003C;stroke-width:1.0;" width="10" x="842.5" y="564.4141"/><polygon fill="#7A003C" points="73,63.7988,83,67.7988,73,71.7988,77,67.7988" style="stroke:#7A003C;stroke-width:1.0;"/><line style="stroke:#7A003C;stroke-width:1.0;" x1="0" x2="79" y1="67.7988" y2="67.7988"/><text fill="#000000" font-family="sans-serif" font-size="13" lengthAdjust="spacing" textLength="66" x="7" y="63.0566">main(args)</text><polygon fill="#7A003C" points="169,93.1094,179,97.1094,169,101.1094,173,97.1094" style="stroke:#7A003C;stroke-width:1.0;"/><line style="stroke:#7A003C;stroke-width:1.0;" x1="95" x2="175" y1="97.1094" y2="97.1094"/><text fill="#000000" font-family="sans-serif" font-size="13" lengthAdjust="spacing" text-decoration="underline" textLength="62" x="102" y="92.3672">load(args)</text><rect fill="#FEECCD" height="30.4883" rx="5" ry="5" style="stroke:#7A003C;stroke-width:0.5;" width="161" x="181" y="75.7988"/><text fill="#000000" font-family="sans-serif" font-size="14" lengthAdjust="spacing" textLength="147" x="188" y="96.334">config: Configuration</text><polygon fill="#7A003C" points="106,134.5977,96,138.5977,106,142.5977,102,138.5977" style="stroke:#7A003C;stroke-width:1.0;"/><line style="stroke:#7A003C;stroke-width:1.0;stroke-dasharray:2.0,2.0;" x1="100" x2="260.5" y1="138.5977" y2="138.5977"/><text fill="#000000" font-family="sans-serif" font-size="13" lengthAdjust="spacing" textLength="7" x="112" y="133.8555">c</text><polygon fill="#7A003C" points="603.5,163.9082,613.5,167.9082,603.5,171.9082,607.5,167.9082" style="stroke:#7A003C;stroke-width:1.0;"/><line style="stroke:#7A003C;stroke-width:1.0;" x1="95" x2="609.5" y1="167.9082" y2="167.9082"/><text fill="#000000" font-family="sans-serif" font-size="13" lengthAdjust="spacing" textLength="80" x="102" y="163.166">this(c.seed())</text><rect fill="#FEECCD" height="30.4883" rx="5" ry="5" style="stroke:#7A003C;stroke-width:0.5;" width="133" x="615.5" y="146.5977"/><text fill="#000000" font-family="sans-serif" font-size="14" lengthAdjust="spacing" textLength="119" x="622.5" y="167.1328">random: Random</text><polygon fill="#7A003C" points="106,205.3965,96,209.3965,106,213.3965,102,209.3965" style="stroke:#7A003C;stroke-width:1.0;"/><line style="stroke:#7A003C;stroke-width:1.0;stroke-dasharray:2.0,2.0;" x1="100" x2="681" y1="209.3965" y2="209.3965"/><text fill="#000000" font-family="sans-serif" font-size="13" lengthAdjust="spacing" textLength="48" x="112" y="204.6543">random</text><polygon fill="#7A003C" points="340,234.707,350,238.707,340,242.707,344,238.707" style="stroke:#7A003C;stroke-width:1.0;"/><line style="stroke:#7A003C;stroke-width:1.0;" x1="95" x2="346" y1="238.707" y2="238.707"/><text fill="#000000" font-family="sans-serif" font-size="13" lengthAdjust="spacing" textLength="137" x="102" y="233.9648">this(c.width, c.height)</text><rect fill="#FEECCD" height="30.4883" rx="5" ry="5" style="stroke:#7A003C;stroke-width:0.5;" width="95" x="352" y="217.3965"/><text fill="#000000" font-family="sans-serif" font-size="14" lengthAdjust="spacing" textLength="81" x="359" y="237.9316">maze: Maze</text><polygon fill="#7A003C" points="106,260.8848,96,264.8848,106,268.8848,102,264.8848" style="stroke:#7A003C;stroke-width:1.0;"/><line style="stroke:#7A003C;stroke-width:1.0;stroke-dasharray:2.0,2.0;" x1="100" x2="398.5" y1="264.8848" y2="264.8848"/><polygon fill="#7A003C" points="382.5,290.1953,392.5,294.1953,382.5,298.1953,386.5,294.1953" style="stroke:#7A003C;stroke-width:1.0;"/><line style="stroke:#7A003C;stroke-width:1.0;" x1="95" x2="388.5" y1="294.1953" y2="294.1953"/><text fill="#000000" font-family="sans-serif" font-size="13" lengthAdjust="spacing" textLength="89" x="102" y="289.4531">carve(random)</text><polygon fill="#7A003C" points="448.5,319.5059,458.5,323.5059,448.5,327.5059,452.5,323.5059" style="stroke:#7A003C;stroke-width:1.0;"/><line style="stroke:#7A003C;stroke-width:1.0;" x1="404.5" x2="454.5" y1="323.5059" y2="323.5059"/><text fill="#000000" font-family="sans-serif" font-size="13" lengthAdjust="spacing" textLength="32" x="411.5" y="318.7637">this()</text><rect fill="#FEECCD" height="30.4883" rx="5" ry="5" style="stroke:#7A003C;stroke-width:0.5;" width="145" x="460.5" y="302.1953"/><text fill="#000000" font-family="sans-serif" font-size="14" lengthAdjust="spacing" textLength="131" x="467.5" y="322.7305">carver: MazeCarver</text><polygon fill="#7A003C" points="415.5,345.6836,405.5,349.6836,415.5,353.6836,411.5,349.6836" style="stroke:#7A003C;stroke-width:1.0;"/><line style="stroke:#7A003C;stroke-width:1.0;stroke-dasharray:2.0,2.0;" x1="409.5" x2="532" y1="349.6836" y2="349.6836"/><polygon fill="#7A003C" points="516,374.9941,526,378.9941,516,382.9941,520,378.9941" style="stroke:#7A003C;stroke-width:1.0;"/><line style="stroke:#7A003C;stroke-width:1.0;" x1="404.5" x2="522" y1="378.9941" y2="378.9941"/><text fill="#000000" font-family="sans-serif" font-size="13" lengthAdjust="spacing" textLength="89" x="411.5" y="374.252">carve(random)</text><polygon fill="#7A003C" points="665,404.3047,675,408.3047,665,412.3047,669,408.3047" style="stroke:#7A003C;stroke-width:1.0;"/><line style="stroke:#7A003C;stroke-width:1.0;" x1="538" x2="671" y1="408.3047" y2="408.3047"/><text fill="#000000" font-family="sans-serif" font-size="13" font-style="italic" lengthAdjust="spacing" textLength="22" x="545" y="403.5625">use</text><polygon fill="#7A003C" points="549,418.3047,539,422.3047,549,426.3047,545,422.3047" style="stroke:#7A003C;stroke-width:1.0;"/><line style="stroke:#7A003C;stroke-width:1.0;stroke-dasharray:2.0,2.0;" x1="543" x2="681" y1="422.3047" y2="422.3047"/><polygon fill="#7A003C" points="415.5,432.3047,405.5,436.3047,415.5,440.3047,411.5,436.3047" style="stroke:#7A003C;stroke-width:1.0;"/><line style="stroke:#7A003C;stroke-width:1.0;stroke-dasharray:2.0,2.0;" x1="409.5" x2="532" y1="436.3047" y2="436.3047"/><polygon fill="#7A003C" points="106,446.3047,96,450.3047,106,454.3047,102,450.3047" style="stroke:#7A003C;stroke-width:1.0;"/><line style="stroke:#7A003C;stroke-width:1.0;stroke-dasharray:2.0,2.0;" x1="100" x2="398.5" y1="450.3047" y2="450.3047"/><polygon fill="#7A003C" points="382.5,475.6152,392.5,479.6152,382.5,483.6152,386.5,479.6152" style="stroke:#7A003C;stroke-width:1.0;"/><line style="stroke:#7A003C;stroke-width:1.0;" x1="95" x2="388.5" y1="479.6152" y2="479.6152"/><text fill="#000000" font-family="sans-serif" font-size="13" lengthAdjust="spacing" textLength="199" x="102" y="474.873">export(c.out, c.humanReadable)</text><polygon fill="#7A003C" points="746.5,504.9258,756.5,508.9258,746.5,512.9258,750.5,508.9258" style="stroke:#7A003C;stroke-width:1.0;"/><line style="stroke:#7A003C;stroke-width:1.0;" x1="404.5" x2="752.5" y1="508.9258" y2="508.9258"/><text fill="#000000" font-family="sans-serif" font-size="13" lengthAdjust="spacing" textLength="65" x="411.5" y="504.1836">this(maze)</text><rect fill="#FEECCD" height="30.4883" rx="5" ry="5" style="stroke:#7A003C;stroke-width:0.5;" width="178" x="758.5" y="487.6152"/><text fill="#000000" font-family="sans-serif" font-size="14" lengthAdjust="spacing" textLength="164" x="765.5" y="508.1504">exporter: MazeExporter</text><polygon fill="#7A003C" points="415.5,531.1035,405.5,535.1035,415.5,539.1035,411.5,535.1035" style="stroke:#7A003C;stroke-width:1.0;"/><line style="stroke:#7A003C;stroke-width:1.0;stroke-dasharray:2.0,2.0;" x1="409.5" x2="846.5" y1="535.1035" y2="535.1035"/><polygon fill="#7A003C" points="830.5,560.4141,840.5,564.4141,830.5,568.4141,834.5,564.4141" style="stroke:#7A003C;stroke-width:1.0;"/><line style="stroke:#7A003C;stroke-width:1.0;" x1="404.5" x2="836.5" y1="564.4141" y2="564.4141"/><text fill="#000000" font-family="sans-serif" font-size="13" lengthAdjust="spacing" textLength="177" x="411.5" y="559.6719">export(out, humanReadable)</text><polygon fill="#7A003C" points="415.5,574.4141,405.5,578.4141,415.5,582.4141,411.5,578.4141" style="stroke:#7A003C;stroke-width:1.0;"/><line style="stroke:#7A003C;stroke-width:1.0;stroke-dasharray:2.0,2.0;" x1="409.5" x2="846.5" y1="578.4141" y2="578.4141"/><polygon fill="#7A003C" points="106,588.4141,96,592.4141,106,596.4141,102,592.4141" style="stroke:#7A003C;stroke-width:1.0;"/><line style="stroke:#7A003C;stroke-width:1.0;stroke-dasharray:2.0,2.0;" x1="100" x2="398.5" y1="592.4141" y2="592.4141"/><polygon fill="#7A003C" points="11,602.4141,1,606.4141,11,610.4141,7,606.4141" style="stroke:#7A003C;stroke-width:1.0;"/><line style="stroke:#7A003C;stroke-width:1.0;stroke-dasharray:2.0,2.0;" x1="5" x2="89" y1="606.4141" y2="606.4141"/><!--SRC=[XLAnReCm4Dtz5Muca5hO6RgWZ5coPa1NSmLBO2DZforVNpWx0LoaUi3dvDrxVi_t8fNeN8qyomVNTzbeVpfa39pL8AoyWqMk5MC362k5741PVgeAVW6fJXn6AlR_2gq-PLFmadPdm4hjiVwNFRg72HUw2GFTX14Tc3iQ3ocfzbnKxg46LAtxWbzf9vWlzp3y7hIn3yvpE17ySM3izlPEtWhUpzy4J3EcZF5v2ODBAi4C3sl1yhcd3EwhgjDG-xwgUi8CMcSK5rkcSCUOwHhSs5QEYSX6n3f9qvZ9hCs1ZYACoIuKSw3wahLjNxd8MfHDQsDEzhUH7Y7nMYlyaOH_YbLoGaeYF1o97ceSeO-LbkKHssJot8sOvpjKHByvXlB0dH-8EHZjBCNYUb1NX1e-EaotsJxd8xx- -JbJP7UPwdyjhptX0YH_87vin6-_]--></g></svg>