<?xml version="1.0" encoding="us-ascii" standalone="no"?><svg xmlns="http://www.w3.org/2000/svg" xmlns:xlink="http://www.w3.org/1999/xlink" contentStyleType="text/css" height="604px" preserveAspectRatio="none" style="width:553px;height:604px;background:#FFFFFF;" version="1.1" viewBox="0 0 553 604" width="553px" zoomAndPan="magnify"><defs/><g><!--class Location--><g id="elem_Location"><rect codeLine="5" fill="#FEECCD" height="130.5742" id="Location" rx="5" ry="5" style="stroke:#7A003C;stroke-width:1.0;" width="215" x="7" y="365.89"/><ellipse cx="75.75" cy="386.2005" fill="#ADD1B2" rx="11" ry="11" style="stroke:#181818;stroke-width:1.0;"/><path d="M78.2231,392.3436 Q77.6421,392.6424 77.0029,392.7919 Q76.3638,392.9413 75.6582,392.9413 Q73.1514,392.9413 71.8315,391.2894 Q70.5117,389.6376 70.5117,386.5165 Q70.5117,383.3871 71.8315,381.7352 Q73.1514,380.0834 75.6582,380.0834 Q76.3638,380.0834 77.0112,380.2328 Q77.6587,380.3822 78.2231,380.681 L78.2231,383.4037 Q77.5923,382.8226 76.9988,382.5528 Q76.4053,382.2831 75.7744,382.2831 Q74.4297,382.2831 73.7449,383.3497 Q73.0601,384.4164 73.0601,386.5165 Q73.0601,388.6083 73.7449,389.6749 Q74.4297,390.7416 75.7744,390.7416 Q76.4053,390.7416 76.9988,390.4718 Q77.5923,390.202 78.2231,389.621 Z " fill="#000000"/><text fill="#000000" font-family="sans-serif" font-size="12" font-style="italic" lengthAdjust="spacing" textLength="73" x="94.25" y="382.4916">&#171;Immutable&#187;</text><text fill="#000000" font-family="sans-serif" font-size="14" lengthAdjust="spacing" textLength="58" x="101.75" y="398.558">Location</text><line style="stroke:#7A003C;stroke-width:1.0;" x1="8" x2="221" y1="406.5111" y2="406.5111"/><ellipse cx="18" cy="420.2552" fill="#84BE84" rx="3" ry="3" style="stroke:#038048;stroke-width:1.0;"/><text fill="#000000" font-family="sans-serif" font-size="14" lengthAdjust="spacing" textLength="173" x="27" y="424.0463">this(x: Integer, y: Integer)</text><line style="stroke:#7A003C;stroke-width:1.0;" x1="8" x2="221" y1="430.9994" y2="430.9994"/><ellipse cx="18" cy="444.7435" fill="#84BE84" rx="3" ry="3" style="stroke:#038048;stroke-width:1.0;"/><text fill="#000000" font-family="sans-serif" font-size="14" lengthAdjust="spacing" textLength="76" x="27" y="448.5345">x(): Integer</text><ellipse cx="18" cy="461.2318" fill="#84BE84" rx="3" ry="3" style="stroke:#038048;stroke-width:1.0;"/><text fill="#000000" font-family="sans-serif" font-size="14" lengthAdjust="spacing" textLength="74" x="27" y="465.0228">y(): Integer</text><line style="stroke:#7A003C;stroke-width:1.0;" x1="8" x2="221" y1="471.9759" y2="471.9759"/><ellipse cx="18" cy="485.7201" fill="#84BE84" rx="3" ry="3" style="stroke:#038048;stroke-width:1.0;"/><text fill="#000000" font-family="sans-serif" font-size="14" lengthAdjust="spacing" textLength="189" x="27" y="489.5111">neighbors(): Set&lt;Location&gt;</text></g><!--class Maze--><g id="elem_Maze"><rect codeLine="15" fill="#FEECCD" height="195.9063" id="Maze" rx="5" ry="5" style="stroke:#7A003C;stroke-width:1.0;" width="357" x="82" y="124.98"/><ellipse cx="238.25" cy="140.98" fill="#ADD1B2" rx="11" ry="11" style="stroke:#181818;stroke-width:1.0;"/><path d="M240.7231,147.1231 Q240.1421,147.4219 239.5029,147.5713 Q238.8638,147.7207 238.1582,147.7207 Q235.6514,147.7207 234.3315,146.0689 Q233.0117,144.417 233.0117,141.2959 Q233.0117,138.1665 234.3315,136.5147 Q235.6514,134.8628 238.1582,134.8628 Q238.8638,134.8628 239.5112,135.0122 Q240.1587,135.1616 240.7231,135.4605 L240.7231,138.1831 Q240.0923,137.6021 239.4988,137.3323 Q238.9053,137.0625 238.2744,137.0625 Q236.9297,137.0625 236.2449,138.1292 Q235.5601,139.1958 235.5601,141.2959 Q235.5601,143.3877 236.2449,144.4544 Q236.9297,145.521 238.2744,145.521 Q238.9053,145.521 239.4988,145.2512 Q240.0923,144.9815 240.7231,144.4004 Z " fill="#000000"/><text fill="#000000" font-family="sans-serif" font-size="14" lengthAdjust="spacing" textLength="36" x="258.75" y="146.271">Maze</text><line style="stroke:#7A003C;stroke-width:1.0;" x1="83" x2="438" y1="156.98" y2="156.98"/><ellipse cx="93" cy="170.7241" fill="#84BE84" rx="3" ry="3" style="stroke:#038048;stroke-width:1.0;"/><text fill="#000000" font-family="sans-serif" font-size="14" lengthAdjust="spacing" textLength="239" x="102" y="174.5152">this(width: Integer, height: Integer)</text><line style="stroke:#7A003C;stroke-width:1.0;" x1="83" x2="438" y1="181.4683" y2="181.4683"/><ellipse cx="93" cy="195.2124" fill="#84BE84" rx="3" ry="3" style="stroke:#038048;stroke-width:1.0;"/><text fill="#000000" font-family="sans-serif" font-size="14" lengthAdjust="spacing" textLength="128" x="102" y="199.0034">getWidth(): Integer</text><ellipse cx="93" cy="211.7007" fill="#84BE84" rx="3" ry="3" style="stroke:#038048;stroke-width:1.0;"/><text fill="#000000" font-family="sans-serif" font-size="14" lengthAdjust="spacing" textLength="134" x="102" y="215.4917">getHeight(): Integer</text><line style="stroke:#7A003C;stroke-width:1.0;" x1="83" x2="438" y1="222.4448" y2="222.4448"/><ellipse cx="93" cy="236.189" fill="#84BE84" rx="3" ry="3" style="stroke:#038048;stroke-width:1.0;"/><text fill="#000000" font-family="sans-serif" font-size="14" lengthAdjust="spacing" textLength="155" x="102" y="239.98">tileAt(y: int, x: int): Tile</text><ellipse cx="93" cy="252.6773" fill="#84BE84" rx="3" ry="3" style="stroke:#038048;stroke-width:1.0;"/><text fill="#000000" font-family="sans-serif" font-size="14" lengthAdjust="spacing" textLength="331" x="102" y="256.4683">neighborsInRange(loc: Location): Set&lt;Location&gt;</text><line style="stroke:#7A003C;stroke-width:1.0;" x1="83" x2="438" y1="263.4214" y2="263.4214"/><ellipse cx="93" cy="277.1655" fill="#84BE84" rx="3" ry="3" style="stroke:#038048;stroke-width:1.0;"/><text fill="#000000" font-family="sans-serif" font-size="14" lengthAdjust="spacing" textLength="165" x="102" y="280.9566">carve(random: Random)</text><ellipse cx="93" cy="293.6538" fill="#84BE84" rx="3" ry="3" style="stroke:#038048;stroke-width:1.0;"/><text fill="#000000" font-family="sans-serif" font-size="14" lengthAdjust="spacing" textLength="139" x="102" y="297.4448">punch(loc: Location)</text><ellipse cx="93" cy="310.1421" fill="#84BE84" rx="3" ry="3" style="stroke:#038048;stroke-width:1.0;"/><text fill="#000000" font-family="sans-serif" font-size="14" lengthAdjust="spacing" textLength="276" x="102" y="313.9331">destroyWall(from: Location, to: Location)</text></g><!--class Tile--><g id="elem_Tile"><rect codeLine="29" fill="#FEECCD" height="72.9766" id="Tile" rx="5" ry="5" style="stroke:#7A003C;stroke-width:1.0;" width="72" x="224.5" y="7"/><ellipse cx="246.25" cy="23" fill="#EB937F" rx="11" ry="11" style="stroke:#181818;stroke-width:1.0;"/><path d="M249.8643,29.5 L242.1445,29.5 L242.1445,17.1069 L249.8643,17.1069 L249.8643,19.2651 L244.5933,19.2651 L244.5933,21.938 L249.3662,21.938 L249.3662,24.0962 L244.5933,24.0962 L244.5933,27.3418 L249.8643,27.3418 Z " fill="#000000"/><text fill="#000000" font-family="sans-serif" font-size="14" lengthAdjust="spacing" textLength="25" x="261.75" y="28.291">Tile</text><line style="stroke:#7A003C;stroke-width:1.0;" x1="225.5" x2="295.5" y1="39" y2="39"/><ellipse cx="235.5" cy="52.7441" fill="none" rx="3" ry="3" style="stroke:#038048;stroke-width:1.0;"/><text fill="#000000" font-family="sans-serif" font-size="14" lengthAdjust="spacing" textLength="46" x="244.5" y="56.5352">EMPTY</text><ellipse cx="235.5" cy="69.2324" fill="none" rx="3" ry="3" style="stroke:#038048;stroke-width:1.0;"/><text fill="#000000" font-family="sans-serif" font-size="14" lengthAdjust="spacing" textLength="36" x="244.5" y="73.0234">WALL</text></g><!--class MazeCarver--><g id="elem_MazeCarver"><rect codeLine="39" fill="#FEECCD" height="56.4883" id="MazeCarver" rx="5" ry="5" style="stroke:#7A003C;stroke-width:1.0;" width="279" x="267" y="402.93"/><ellipse cx="361.75" cy="418.93" fill="#B4A7E5" rx="11" ry="11" style="stroke:#181818;stroke-width:1.0;"/><path d="M358.1777,415.1951 L358.1777,413.0369 L365.5571,413.0369 L365.5571,415.1951 L363.0918,415.1951 L363.0918,423.2718 L365.5571,423.2718 L365.5571,425.43 L358.1777,425.43 L358.1777,423.2718 L360.6431,423.2718 L360.6431,415.1951 Z " fill="#000000"/><text fill="#000000" font-family="sans-serif" font-size="14" font-style="italic" lengthAdjust="spacing" textLength="81" x="382.25" y="424.221">MazeCarver</text><line style="stroke:#7A003C;stroke-width:1.0;" x1="268" x2="545" y1="434.93" y2="434.93"/><ellipse cx="278" cy="448.6741" fill="#84BE84" rx="3" ry="3" style="stroke:#038048;stroke-width:1.0;"/><text fill="#000000" font-family="sans-serif" font-size="14" lengthAdjust="spacing" textLength="253" x="287" y="452.4652">carve(theMaze: Maze, rand: Random)</text></g><!--class Prim--><g id="elem_Prim"><rect codeLine="43" fill="#FEECCD" height="56.4883" id="Prim" rx="5" ry="5" style="stroke:#7A003C;stroke-width:1.0;" width="279" x="121" y="541.46"/><ellipse cx="240.75" cy="557.46" fill="#ADD1B2" rx="11" ry="11" style="stroke:#181818;stroke-width:1.0;"/><path d="M243.2231,563.6031 Q242.6421,563.9019 242.0029,564.0513 Q241.3638,564.2007 240.6582,564.2007 Q238.1514,564.2007 236.8315,562.5489 Q235.5117,560.897 235.5117,557.7759 Q235.5117,554.6465 236.8315,552.9947 Q238.1514,551.3428 240.6582,551.3428 Q241.3638,551.3428 242.0112,551.4922 Q242.6587,551.6416 243.2231,551.9405 L243.2231,554.6631 Q242.5923,554.0821 241.9988,553.8123 Q241.4053,553.5425 240.7744,553.5425 Q239.4297,553.5425 238.7449,554.6092 Q238.0601,555.6758 238.0601,557.7759 Q238.0601,559.8677 238.7449,560.9344 Q239.4297,562.001 240.7744,562.001 Q241.4053,562.001 241.9988,561.7312 Q242.5923,561.4615 243.2231,560.8804 Z " fill="#000000"/><text fill="#000000" font-family="sans-serif" font-size="14" lengthAdjust="spacing" textLength="31" x="261.25" y="562.751">Prim</text><line style="stroke:#7A003C;stroke-width:1.0;" x1="122" x2="399" y1="573.46" y2="573.46"/><ellipse cx="132" cy="587.2041" fill="#84BE84" rx="3" ry="3" style="stroke:#038048;stroke-width:1.0;"/><text fill="#000000" font-family="sans-serif" font-size="14" lengthAdjust="spacing" textLength="253" x="141" y="590.9952">carve(theMaze: Maze, rand: Random)</text></g><!--link Tile to Maze--><g id="link_Tile_Maze"><path codeLine="34" d="M260.5,86.4 C260.5,99.46 260.5,96.93 260.5,112.76 " fill="none" id="Tile-Maze" style="stroke:#7A003C;stroke-width:1.0;"/><polygon fill="#7A003C" points="260.5,80.4,256.5,89.4,260.5,85.4,264.5,89.4,260.5,80.4" style="stroke:#7A003C;stroke-width:1.0;"/><polygon fill="#7A003C" points="260.5,124.76,264.5,118.76,260.5,112.76,256.5,118.76,260.5,124.76" style="stroke:#7A003C;stroke-width:1.0;"/><text fill="#000000" font-family="sans-serif" font-size="13" lengthAdjust="spacing" textLength="37" x="220.3203" y="100.6283">tiles *</text></g><!--reverse link MazeCarver to Prim--><g id="link_MazeCarver_Prim"><path d="M363.8036,472.0952 C338.4736,495.7852 315.32,517.44 290,541.12 " fill="none" id="MazeCarver-backto-Prim" style="stroke:#7A003C;stroke-width:1.0;stroke-dasharray:7.0,7.0;"/><polygon fill="none" points="376.95,459.8,359.7052,467.7131,367.902,476.4774,376.95,459.8" style="stroke:#7A003C;stroke-width:1.0;"/></g><!--link Maze to MazeCarver--><g id="link_Maze_MazeCarver"><path codeLine="50" d="M332.906,326.2177 C354.016,356.0477 368.6648,376.7218 383.5848,397.8118 " fill="none" id="Maze-MazeCarver" style="stroke:#7A003C;stroke-width:1.0;stroke-dasharray:7.0,7.0;"/><polygon fill="#7A003C" points="329.44,321.32,331.3738,330.9771,332.3283,325.4014,337.9041,326.3559,329.44,321.32" style="stroke:#7A003C;stroke-width:1.0;"/><polygon fill="#7A003C" points="387.05,402.71,385.1177,393.0526,384.1623,398.6282,378.5867,397.6728,387.05,402.71" style="stroke:#7A003C;stroke-width:1.0;"/></g><!--link Maze to Location--><g id="link_Maze_Location"><path codeLine="51" d="M191.56,321.32 C180.93,336.34 173.646,346.6223 163.696,360.6823 " fill="none" id="Maze-to-Location" style="stroke:#7A003C;stroke-width:1.0;stroke-dasharray:7.0,7.0;"/><polygon fill="#7A003C" points="160.23,365.58,168.6941,360.5442,163.1183,361.4986,162.1639,355.9229,160.23,365.58" style="stroke:#7A003C;stroke-width:1.0;"/></g><!--reverse link Location to Prim--><g id="link_Location_Prim"><path codeLine="52" d="M188.0323,500.9382 C204.6923,516.5182 217.23,528.25 230.95,541.07 " fill="none" id="Location-backto-Prim" style="stroke:#7A003C;stroke-width:1.0;stroke-dasharray:7.0,7.0;"/><polygon fill="#7A003C" points="183.65,496.84,187.4913,505.9089,187.3019,500.2552,192.9556,500.0658,183.65,496.84" style="stroke:#7A003C;stroke-width:1.0;"/></g><!--SRC=[dLBHQi8m57tFLsI-hBgsUo-b86CmGK6S87lCsciRI599RZUxuRylYRLMnPVb9U6USs_EESa3Lxbe2g3nywwH8ZRO2Y1svO8PG-Trpf3NYgRfJCe6sQU0BAE_XDhrHB7Y9jWdTAOGIj0XRVlps5EYg6FkWt4FTQNskjIJ5V2o-gorSOntmFGa8oE7Njg2_S2ba6zUO3KGKxanU4zH2RXn3RV2BFBcM-yAH2vWYe5ronM6TEztIrxR-hM7cLenLK8WwZpfyxpnTJ4-P_eB0irKKSk4hlm-xh1Te_BgQbW75M1Gr-s62H5ijMizCKAAzP1lKmJLIA-tp_1riLn_TEVDT3vtB4-W8-VNqCc8fb4qySaJykWVO19b0zZx9yI60NhBSl3K5-T6zzSSpM453aiy8wJEwzdfuVJ6IyqbvN8dG892y_znTdcvQHndWod7eYsTeY7d3n_7_dho1m00]--></g></svg>