<?xml version="1.0" encoding="us-ascii" standalone="no"?><svg xmlns="http://www.w3.org/2000/svg" xmlns:xlink="http://www.w3.org/1999/xlink" contentStyleType="text/css" height="536px" preserveAspectRatio="none" style="width:908px;height:536px;background:#FFFFFF;" version="1.1" viewBox="0 0 908 536" width="908px" zoomAndPan="magnify"><defs/><g><!--class Main--><g id="elem_Main"><rect codeLine="3" fill="#FEECCD" height="56.4883" id="Main" rx="5" ry="5" style="stroke:#7A003C;stroke-width:1.0;" width="159" x="114.5" y="202.68"/><ellipse cx="173.25" cy="218.68" fill="#ADD1B2" rx="11" ry="11" style="stroke:#181818;stroke-width:1.0;"/><path d="M175.7231,224.8231 Q175.1421,225.1219 174.5029,225.2713 Q173.8638,225.4207 173.1582,225.4207 Q170.6514,225.4207 169.3315,223.7689 Q168.0117,222.117 168.0117,218.9959 Q168.0117,215.8665 169.3315,214.2147 Q170.6514,212.5628 173.1582,212.5628 Q173.8638,212.5628 174.5112,212.7122 Q175.1587,212.8616 175.7231,213.1605 L175.7231,215.8831 Q175.0923,215.3021 174.4988,215.0323 Q173.9053,214.7625 173.2744,214.7625 Q171.9297,214.7625 171.2449,215.8292 Q170.5601,216.8958 170.5601,218.9959 Q170.5601,221.0877 171.2449,222.1544 Q171.9297,223.221 173.2744,223.221 Q173.9053,223.221 174.4988,222.9512 Q175.0923,222.6815 175.7231,222.1004 Z " fill="#000000"/><text fill="#000000" font-family="sans-serif" font-size="14" lengthAdjust="spacing" textLength="33" x="193.75" y="223.971">Main</text><line style="stroke:#7A003C;stroke-width:1.0;" x1="115.5" x2="272.5" y1="234.68" y2="234.68"/><ellipse cx="125.5" cy="248.4241" fill="#84BE84" rx="3" ry="3" style="stroke:#038048;stroke-width:1.0;"/><text fill="#000000" font-family="sans-serif" font-size="14" lengthAdjust="spacing" text-decoration="underline" textLength="133" x="134.5" y="252.2152">main(args: String[])</text></g><!--class Configuration--><g id="elem_Configuration"><rect codeLine="7" fill="#FEECCD" height="155.5508" id="Configuration" rx="5" ry="5" style="stroke:#7A003C;stroke-width:1.0;" width="259" x="58.5" y="373.88"/><ellipse cx="135.75" cy="394.1905" fill="#ADD1B2" rx="11" ry="11" style="stroke:#181818;stroke-width:1.0;"/><path d="M138.2231,400.3336 Q137.6421,400.6324 137.0029,400.7819 Q136.3638,400.9313 135.6582,400.9313 Q133.1514,400.9313 131.8315,399.2794 Q130.5117,397.6276 130.5117,394.5065 Q130.5117,391.3771 131.8315,389.7252 Q133.1514,388.0734 135.6582,388.0734 Q136.3638,388.0734 137.0112,388.2228 Q137.6587,388.3722 138.2231,388.671 L138.2231,391.3937 Q137.5923,390.8126 136.9988,390.5428 Q136.4053,390.2731 135.7744,390.2731 Q134.4297,390.2731 133.7449,391.3397 Q133.0601,392.4064 133.0601,394.5065 Q133.0601,396.5983 133.7449,397.6649 Q134.4297,398.7316 135.7744,398.7316 Q136.4053,398.7316 136.9988,398.4618 Q137.5923,398.192 138.2231,397.611 Z " fill="#000000"/><text fill="#000000" font-family="sans-serif" font-size="12" font-style="italic" lengthAdjust="spacing" textLength="73" x="167.75" y="390.4816">&#171;Immutable&#187;</text><text fill="#000000" font-family="sans-serif" font-size="14" lengthAdjust="spacing" textLength="96" x="156.25" y="406.548">Configuration</text><line style="stroke:#7A003C;stroke-width:1.0;" x1="59.5" x2="316.5" y1="414.5011" y2="414.5011"/><ellipse cx="69.5" cy="428.2452" fill="none" rx="3" ry="3" style="stroke:#038048;stroke-width:1.0;"/><text fill="#000000" font-family="sans-serif" font-size="14" lengthAdjust="spacing" textLength="95" x="78.5" y="432.0362">width: Integer</text><ellipse cx="69.5" cy="444.7335" fill="none" rx="3" ry="3" style="stroke:#038048;stroke-width:1.0;"/><text fill="#000000" font-family="sans-serif" font-size="14" lengthAdjust="spacing" textLength="101" x="78.5" y="448.5245">height: Integer</text><ellipse cx="69.5" cy="461.2218" fill="none" rx="3" ry="3" style="stroke:#038048;stroke-width:1.0;"/><text fill="#000000" font-family="sans-serif" font-size="14" lengthAdjust="spacing" textLength="74" x="78.5" y="465.0128">seed: Long</text><ellipse cx="69.5" cy="477.7101" fill="none" rx="3" ry="3" style="stroke:#038048;stroke-width:1.0;"/><text fill="#000000" font-family="sans-serif" font-size="14" lengthAdjust="spacing" textLength="126" x="78.5" y="481.5011">output: FileStream</text><ellipse cx="69.5" cy="494.1984" fill="none" rx="3" ry="3" style="stroke:#038048;stroke-width:1.0;"/><text fill="#000000" font-family="sans-serif" font-size="14" lengthAdjust="spacing" textLength="174" x="78.5" y="497.9894">humanReadable: Boolean</text><line style="stroke:#7A003C;stroke-width:1.0;" x1="59.5" x2="316.5" y1="504.9425" y2="504.9425"/><ellipse cx="69.5" cy="518.6866" fill="#84BE84" rx="3" ry="3" style="stroke:#038048;stroke-width:1.0;"/><text fill="#000000" font-family="sans-serif" font-size="14" lengthAdjust="spacing" text-decoration="underline" textLength="233" x="78.5" y="522.4777">load(args: String[]): Configuration</text></g><!--class Location--><g id="elem_Location"><rect codeLine="17" fill="#FEECCD" height="130.5742" id="Location" rx="5" ry="5" style="stroke:#7A003C;stroke-width:1.0;" width="215" x="686.5" y="386.37"/><ellipse cx="755.25" cy="406.6805" fill="#ADD1B2" rx="11" ry="11" style="stroke:#181818;stroke-width:1.0;"/><path d="M757.7231,412.8236 Q757.1421,413.1224 756.5029,413.2719 Q755.8638,413.4213 755.1582,413.4213 Q752.6514,413.4213 751.3315,411.7694 Q750.0117,410.1176 750.0117,406.9965 Q750.0117,403.8671 751.3315,402.2152 Q752.6514,400.5634 755.1582,400.5634 Q755.8638,400.5634 756.5112,400.7128 Q757.1587,400.8622 757.7231,401.161 L757.7231,403.8837 Q757.0923,403.3026 756.4988,403.0328 Q755.9053,402.7631 755.2744,402.7631 Q753.9297,402.7631 753.2449,403.8297 Q752.5601,404.8964 752.5601,406.9965 Q752.5601,409.0883 753.2449,410.1549 Q753.9297,411.2216 755.2744,411.2216 Q755.9053,411.2216 756.4988,410.9518 Q757.0923,410.682 757.7231,410.101 Z " fill="#000000"/><text fill="#000000" font-family="sans-serif" font-size="12" font-style="italic" lengthAdjust="spacing" textLength="73" x="773.75" y="402.9716">&#171;Immutable&#187;</text><text fill="#000000" font-family="sans-serif" font-size="14" lengthAdjust="spacing" textLength="58" x="781.25" y="419.038">Location</text><line style="stroke:#7A003C;stroke-width:1.0;" x1="687.5" x2="900.5" y1="426.9911" y2="426.9911"/><ellipse cx="697.5" cy="440.7352" fill="#84BE84" rx="3" ry="3" style="stroke:#038048;stroke-width:1.0;"/><text fill="#000000" font-family="sans-serif" font-size="14" lengthAdjust="spacing" textLength="173" x="706.5" y="444.5262">this(x: Integer, y: Integer)</text><line style="stroke:#7A003C;stroke-width:1.0;" x1="687.5" x2="900.5" y1="451.4794" y2="451.4794"/><ellipse cx="697.5" cy="465.2235" fill="#84BE84" rx="3" ry="3" style="stroke:#038048;stroke-width:1.0;"/><text fill="#000000" font-family="sans-serif" font-size="14" lengthAdjust="spacing" textLength="76" x="706.5" y="469.0145">x(): Integer</text><ellipse cx="697.5" cy="481.7118" fill="#84BE84" rx="3" ry="3" style="stroke:#038048;stroke-width:1.0;"/><text fill="#000000" font-family="sans-serif" font-size="14" lengthAdjust="spacing" textLength="74" x="706.5" y="485.5028">y(): Integer</text><line style="stroke:#7A003C;stroke-width:1.0;" x1="687.5" x2="900.5" y1="492.4559" y2="492.4559"/><ellipse cx="697.5" cy="506.2001" fill="#84BE84" rx="3" ry="3" style="stroke:#038048;stroke-width:1.0;"/><text fill="#000000" font-family="sans-serif" font-size="14" lengthAdjust="spacing" textLength="189" x="706.5" y="509.9911">neighbors(): Set&lt;Location&gt;</text></g><!--class Maze--><g id="elem_Maze"><rect codeLine="27" fill="#FEECCD" height="195.9063" id="Maze" rx="5" ry="5" style="stroke:#7A003C;stroke-width:1.0;" width="357" x="323.5" y="132.97"/><ellipse cx="479.75" cy="148.97" fill="#ADD1B2" rx="11" ry="11" style="stroke:#181818;stroke-width:1.0;"/><path d="M482.2231,155.1131 Q481.6421,155.4119 481.0029,155.5613 Q480.3638,155.7107 479.6582,155.7107 Q477.1514,155.7107 475.8315,154.0589 Q474.5117,152.407 474.5117,149.2859 Q474.5117,146.1565 475.8315,144.5047 Q477.1514,142.8528 479.6582,142.8528 Q480.3638,142.8528 481.0112,143.0022 Q481.6587,143.1516 482.2231,143.4505 L482.2231,146.1731 Q481.5923,145.5921 480.9988,145.3223 Q480.4053,145.0525 479.7744,145.0525 Q478.4297,145.0525 477.7449,146.1192 Q477.0601,147.1858 477.0601,149.2859 Q477.0601,151.3777 477.7449,152.4444 Q478.4297,153.511 479.7744,153.511 Q480.4053,153.511 480.9988,153.2412 Q481.5923,152.9715 482.2231,152.3904 Z " fill="#000000"/><text fill="#000000" font-family="sans-serif" font-size="14" lengthAdjust="spacing" textLength="36" x="500.25" y="154.261">Maze</text><line style="stroke:#7A003C;stroke-width:1.0;" x1="324.5" x2="679.5" y1="164.97" y2="164.97"/><ellipse cx="334.5" cy="178.7141" fill="#84BE84" rx="3" ry="3" style="stroke:#038048;stroke-width:1.0;"/><text fill="#000000" font-family="sans-serif" font-size="14" lengthAdjust="spacing" textLength="239" x="343.5" y="182.5052">this(width: Integer, height: Integer)</text><line style="stroke:#7A003C;stroke-width:1.0;" x1="324.5" x2="679.5" y1="189.4583" y2="189.4583"/><ellipse cx="334.5" cy="203.2024" fill="#84BE84" rx="3" ry="3" style="stroke:#038048;stroke-width:1.0;"/><text fill="#000000" font-family="sans-serif" font-size="14" lengthAdjust="spacing" textLength="128" x="343.5" y="206.9934">getWidth(): Integer</text><ellipse cx="334.5" cy="219.6907" fill="#84BE84" rx="3" ry="3" style="stroke:#038048;stroke-width:1.0;"/><text fill="#000000" font-family="sans-serif" font-size="14" lengthAdjust="spacing" textLength="134" x="343.5" y="223.4817">getHeight(): Integer</text><line style="stroke:#7A003C;stroke-width:1.0;" x1="324.5" x2="679.5" y1="230.4348" y2="230.4348"/><ellipse cx="334.5" cy="244.179" fill="#84BE84" rx="3" ry="3" style="stroke:#038048;stroke-width:1.0;"/><text fill="#000000" font-family="sans-serif" font-size="14" lengthAdjust="spacing" textLength="155" x="343.5" y="247.97">tileAt(y: int, x: int): Tile</text><ellipse cx="334.5" cy="260.6673" fill="#84BE84" rx="3" ry="3" style="stroke:#038048;stroke-width:1.0;"/><text fill="#000000" font-family="sans-serif" font-size="14" lengthAdjust="spacing" textLength="331" x="343.5" y="264.4583">neighborsInRange(loc: Location): Set&lt;Location&gt;</text><line style="stroke:#7A003C;stroke-width:1.0;" x1="324.5" x2="679.5" y1="271.4114" y2="271.4114"/><ellipse cx="334.5" cy="285.1555" fill="#84BE84" rx="3" ry="3" style="stroke:#038048;stroke-width:1.0;"/><text fill="#000000" font-family="sans-serif" font-size="14" lengthAdjust="spacing" textLength="165" x="343.5" y="288.9466">carve(random: Random)</text><ellipse cx="334.5" cy="301.6438" fill="#84BE84" rx="3" ry="3" style="stroke:#038048;stroke-width:1.0;"/><text fill="#000000" font-family="sans-serif" font-size="14" lengthAdjust="spacing" textLength="139" x="343.5" y="305.4348">punch(loc: Location)</text><ellipse cx="334.5" cy="318.1321" fill="#84BE84" rx="3" ry="3" style="stroke:#038048;stroke-width:1.0;"/><text fill="#000000" font-family="sans-serif" font-size="14" lengthAdjust="spacing" textLength="276" x="343.5" y="321.9231">destroyWall(from: Location, to: Location)</text></g><!--class Tile--><g id="elem_Tile"><rect codeLine="41" fill="#FEECCD" height="72.9766" id="Tile" rx="5" ry="5" style="stroke:#7A003C;stroke-width:1.0;" width="72" x="725" y="194.44"/><ellipse cx="746.75" cy="210.44" fill="#EB937F" rx="11" ry="11" style="stroke:#181818;stroke-width:1.0;"/><path d="M750.3643,216.94 L742.6445,216.94 L742.6445,204.5469 L750.3643,204.5469 L750.3643,206.7051 L745.0933,206.7051 L745.0933,209.378 L749.8662,209.378 L749.8662,211.5362 L745.0933,211.5362 L745.0933,214.7818 L750.3643,214.7818 Z " fill="#000000"/><text fill="#000000" font-family="sans-serif" font-size="14" lengthAdjust="spacing" textLength="25" x="762.25" y="215.731">Tile</text><line style="stroke:#7A003C;stroke-width:1.0;" x1="726" x2="796" y1="226.44" y2="226.44"/><ellipse cx="736" cy="240.1841" fill="none" rx="3" ry="3" style="stroke:#038048;stroke-width:1.0;"/><text fill="#000000" font-family="sans-serif" font-size="14" lengthAdjust="spacing" textLength="46" x="745" y="243.9752">EMPTY</text><ellipse cx="736" cy="256.6724" fill="none" rx="3" ry="3" style="stroke:#038048;stroke-width:1.0;"/><text fill="#000000" font-family="sans-serif" font-size="14" lengthAdjust="spacing" textLength="36" x="745" y="260.4634">WALL</text></g><!--class MazeExporter--><g id="elem_MazeExporter"><rect codeLine="50" fill="#FEECCD" height="80.9766" id="MazeExporter" rx="5" ry="5" style="stroke:#7A003C;stroke-width:1.0;" width="374" x="7" y="7"/><ellipse cx="141.75" cy="23" fill="#ADD1B2" rx="11" ry="11" style="stroke:#181818;stroke-width:1.0;"/><path d="M144.2231,29.1431 Q143.6421,29.4419 143.0029,29.5913 Q142.3638,29.7407 141.6582,29.7407 Q139.1514,29.7407 137.8315,28.0889 Q136.5117,26.437 136.5117,23.3159 Q136.5117,20.1865 137.8315,18.5347 Q139.1514,16.8828 141.6582,16.8828 Q142.3638,16.8828 143.0112,17.0322 Q143.6587,17.1816 144.2231,17.4805 L144.2231,20.2031 Q143.5923,19.6221 142.9988,19.3523 Q142.4053,19.0825 141.7744,19.0825 Q140.4297,19.0825 139.7449,20.1492 Q139.0601,21.2158 139.0601,23.3159 Q139.0601,25.4077 139.7449,26.4744 Q140.4297,27.541 141.7744,27.541 Q142.4053,27.541 142.9988,27.2712 Q143.5923,27.0015 144.2231,26.4204 Z " fill="#000000"/><text fill="#000000" font-family="sans-serif" font-size="14" lengthAdjust="spacing" textLength="96" x="162.25" y="28.291">MazeExporter</text><line style="stroke:#7A003C;stroke-width:1.0;" x1="8" x2="380" y1="39" y2="39"/><ellipse cx="18" cy="52.7441" fill="#84BE84" rx="3" ry="3" style="stroke:#038048;stroke-width:1.0;"/><text fill="#000000" font-family="sans-serif" font-size="14" lengthAdjust="spacing" textLength="137" x="27" y="56.5352">this(theMaze: Maze)</text><line style="stroke:#7A003C;stroke-width:1.0;" x1="8" x2="380" y1="63.4883" y2="63.4883"/><ellipse cx="18" cy="77.2324" fill="#84BE84" rx="3" ry="3" style="stroke:#038048;stroke-width:1.0;"/><text fill="#000000" font-family="sans-serif" font-size="14" lengthAdjust="spacing" textLength="348" x="27" y="81.0234">export(out: FileStream, humanReadable?: boolean)</text></g><!--class MazeCarver--><g id="elem_MazeCarver"><rect codeLine="56" fill="#FEECCD" height="56.4883" id="MazeCarver" rx="5" ry="5" style="stroke:#7A003C;stroke-width:1.0;" width="279" x="362.5" y="423.41"/><ellipse cx="457.25" cy="439.41" fill="#ADD1B2" rx="11" ry="11" style="stroke:#181818;stroke-width:1.0;"/><path d="M459.7231,445.5531 Q459.1421,445.8519 458.5029,446.0013 Q457.8638,446.1507 457.1582,446.1507 Q454.6514,446.1507 453.3315,444.4989 Q452.0117,442.847 452.0117,439.7259 Q452.0117,436.5965 453.3315,434.9447 Q454.6514,433.2928 457.1582,433.2928 Q457.8638,433.2928 458.5112,433.4422 Q459.1587,433.5916 459.7231,433.8905 L459.7231,436.6131 Q459.0923,436.0321 458.4988,435.7623 Q457.9053,435.4925 457.2744,435.4925 Q455.9297,435.4925 455.2449,436.5592 Q454.5601,437.6258 454.5601,439.7259 Q454.5601,441.8177 455.2449,442.8844 Q455.9297,443.951 457.2744,443.951 Q457.9053,443.951 458.4988,443.6812 Q459.0923,443.4115 459.7231,442.8304 Z " fill="#000000"/><text fill="#000000" font-family="sans-serif" font-size="14" lengthAdjust="spacing" textLength="81" x="477.75" y="444.701">MazeCarver</text><line style="stroke:#7A003C;stroke-width:1.0;" x1="363.5" x2="640.5" y1="455.41" y2="455.41"/><ellipse cx="373.5" cy="469.1541" fill="#84BE84" rx="3" ry="3" style="stroke:#038048;stroke-width:1.0;"/><text fill="#000000" font-family="sans-serif" font-size="14" lengthAdjust="spacing" textLength="253" x="382.5" y="472.9452">carve(theMaze: Maze, rand: Random)</text></g><!--link Maze to Tile--><g id="link_Maze_Tile"><path codeLine="48" d="M692.88,230.93 C702.08,230.93 702.04,230.93 718.63,230.93 " fill="none" id="Maze-Tile" style="stroke:#7A003C;stroke-width:1.0;"/><polygon fill="#7A003C" points="680.88,230.93,686.88,234.93,692.88,230.93,686.88,226.93,680.88,230.93" style="stroke:#7A003C;stroke-width:1.0;"/><polygon fill="#7A003C" points="724.63,230.93,715.63,226.93,719.63,230.93,715.63,234.93,724.63,230.93" style="stroke:#7A003C;stroke-width:1.0;"/><text fill="#000000" font-family="sans-serif" font-size="13" lengthAdjust="spacing" textLength="37" x="679.9945" y="227.2882">tiles *</text></g><!--link Main to Configuration--><g id="link_Main_Configuration"><path codeLine="61" d="M193.24,259.63 C192.46,288.14 191.3638,327.8522 190.2838,367.4022 " fill="none" id="Main-to-Configuration" style="stroke:#7A003C;stroke-width:1.0;stroke-dasharray:7.0,7.0;"/><polygon fill="#7A003C" points="190.12,373.4,194.3642,364.5125,190.2565,368.4019,186.3672,364.2942,190.12,373.4" style="stroke:#7A003C;stroke-width:1.0;"/></g><!--reverse link MazeExporter to Main--><g id="link_MazeExporter_Main"><path codeLine="62" d="M194,94.3 C194,128.83 194,171.91 194,202.29 " fill="none" id="MazeExporter-backto-Main" style="stroke:#7A003C;stroke-width:1.0;stroke-dasharray:7.0,7.0;"/><polygon fill="#7A003C" points="194,88.3,190,97.3,194,93.3,198,97.3,194,88.3" style="stroke:#7A003C;stroke-width:1.0;"/></g><!--link Main to Maze--><g id="link_Main_Maze"><path codeLine="63" d="M273.88,230.93 C287.14,230.93 296.67,230.93 296.67,230.93 C296.67,230.93 301.99,230.93 317.11,230.93 " fill="none" id="Main-to-Maze" style="stroke:#7A003C;stroke-width:1.0;stroke-dasharray:7.0,7.0;"/><polygon fill="#7A003C" points="323.11,230.93,314.11,226.93,318.11,230.93,314.11,234.93,323.11,230.93" style="stroke:#7A003C;stroke-width:1.0;"/></g><!--link Maze to MazeCarver--><g id="link_Maze_MazeCarver"><path codeLine="64" d="M502,329.14 C502,363.37 502,393.2 502,417.01 " fill="none" id="Maze-to-MazeCarver" style="stroke:#7A003C;stroke-width:1.0;stroke-dasharray:7.0,7.0;"/><polygon fill="#7A003C" points="502,423.01,506,414.01,502,418.01,498,414.01,502,423.01" style="stroke:#7A003C;stroke-width:1.0;"/></g><!--link Maze to Location--><g id="link_Maze_Location"><path codeLine="65" d="M631.78,329.14 C657.52,348.42 679.1383,364.6123 702.9883,382.4823 " fill="none" id="Maze-to-Location" style="stroke:#7A003C;stroke-width:1.0;stroke-dasharray:7.0,7.0;"/><polygon fill="#7A003C" points="707.79,386.08,702.986,377.4823,703.7886,383.0819,698.189,383.8845,707.79,386.08" style="stroke:#7A003C;stroke-width:1.0;"/></g><!--link MazeCarver to Location--><g id="link_MazeCarver_Location"><path codeLine="66" d="M641.74,451.65 C658.14,451.65 669.49,451.65 680.2,451.65 " fill="none" id="MazeCarver-to-Location" style="stroke:#7A003C;stroke-width:1.0;stroke-dasharray:7.0,7.0;"/><polygon fill="#7A003C" points="686.2,451.65,677.2,447.65,681.2,451.65,677.2,455.65,686.2,451.65" style="stroke:#7A003C;stroke-width:1.0;"/></g><!--SRC=[VLJ1Zfim4Btp5TEzbAH0xoYYsgwsQgIiL6LNYggg1mTcmPAn8tjeawxstsixX62lMYw6cJUUzzxOlEEo5aE3K7my3Bqe39q49aajc37mmBY4bmJiym5U337YzIlqDfeotPeI7abpsVxukKXUBpLtIZxpTj0MgoIiLkk-7uZj1LRLjDLltb1NmbeIjgZ7O8UyxIYE6iIcX8sIxHXG0nq62_l21ThsoFfB_T0pkKNMk6ObV5PA89C-cUUn1g5O4sieG-vNIHjL_qyDTToanubu1gVfVH6sFwQBMDyf3arWwVpOAsqSuX5fTQ5HEMRJXFvWI2JqDejjZHYrI3jNy9QOpNprfVyaI7O2jvHQjLnI1aU_Ml2JZSSQrdBBP8kfK7Kv-Vb6Lx1zpVGlJ3MJZUfBsFfrCUOEWwoxQBCnrQ0XhKux9aJwh5tf1P41gJdUkeXow3tVoSFxXszFtyVttUrcur3lFG9kd603onjOvVdIMvyaVW3Bl9fblVxPVEwF1wK9TJWdwj0bIm-9feA-8bNXES_28_wfXFtvZCzkdzlipXbtxNRsCMYNWRFrQgexJ_wk5qKLNO90mAee_3zX15Td3xm5nVXrRZx6gidjP4Pi7luB]--></g></svg>