<?xml version="1.0" encoding="us-ascii" standalone="no"?><svg xmlns="http://www.w3.org/2000/svg" xmlns:xlink="http://www.w3.org/1999/xlink" contentStyleType="text/css" height="536px" preserveAspectRatio="none" style="width:857px;height:536px;background:#FFFFFF;" version="1.1" viewBox="0 0 857 536" width="857px" zoomAndPan="magnify"><defs/><g><!--class Main--><g id="elem_Main"><rect codeLine="3" fill="#FEECCD" height="56.4883" id="Main" rx="5" ry="5" style="stroke:#7A003C;stroke-width:1.0;" width="159" x="68" y="202.68"/><ellipse cx="126.75" cy="218.68" fill="#ADD1B2" rx="11" ry="11" style="stroke:#181818;stroke-width:1.0;"/><path d="M129.2231,224.8231 Q128.6421,225.1219 128.0029,225.2713 Q127.3638,225.4207 126.6582,225.4207 Q124.1514,225.4207 122.8315,223.7689 Q121.5117,222.117 121.5117,218.9959 Q121.5117,215.8665 122.8315,214.2147 Q124.1514,212.5628 126.6582,212.5628 Q127.3638,212.5628 128.0112,212.7122 Q128.6587,212.8616 129.2231,213.1605 L129.2231,215.8831 Q128.5923,215.3021 127.9988,215.0323 Q127.4053,214.7625 126.7744,214.7625 Q125.4297,214.7625 124.7449,215.8292 Q124.0601,216.8958 124.0601,218.9959 Q124.0601,221.0877 124.7449,222.1544 Q125.4297,223.221 126.7744,223.221 Q127.4053,223.221 127.9988,222.9512 Q128.5923,222.6815 129.2231,222.1004 Z " fill="#000000"/><text fill="#000000" font-family="sans-serif" font-size="14" lengthAdjust="spacing" textLength="33" x="147.25" y="223.971">Main</text><line style="stroke:#7A003C;stroke-width:1.0;" x1="69" x2="226" y1="234.68" y2="234.68"/><ellipse cx="79" cy="248.4241" fill="#84BE84" rx="3" ry="3" style="stroke:#038048;stroke-width:1.0;"/><text fill="#000000" font-family="sans-serif" font-size="14" lengthAdjust="spacing" text-decoration="underline" textLength="133" x="88" y="252.2152">main(args: String[])</text></g><!--class Configuration--><g id="elem_Configuration"><rect codeLine="7" fill="#FEECCD" height="155.5508" id="Configuration" rx="5" ry="5" style="stroke:#7A003C;stroke-width:1.0;" width="259" x="7" y="373.88"/><ellipse cx="84.25" cy="394.1905" fill="#ADD1B2" rx="11" ry="11" style="stroke:#181818;stroke-width:1.0;"/><path d="M86.7231,400.3336 Q86.1421,400.6324 85.5029,400.7819 Q84.8638,400.9313 84.1582,400.9313 Q81.6514,400.9313 80.3315,399.2794 Q79.0117,397.6276 79.0117,394.5065 Q79.0117,391.3771 80.3315,389.7252 Q81.6514,388.0734 84.1582,388.0734 Q84.8638,388.0734 85.5112,388.2228 Q86.1587,388.3722 86.7231,388.671 L86.7231,391.3937 Q86.0923,390.8126 85.4988,390.5428 Q84.9053,390.2731 84.2744,390.2731 Q82.9297,390.2731 82.2449,391.3397 Q81.5601,392.4064 81.5601,394.5065 Q81.5601,396.5983 82.2449,397.6649 Q82.9297,398.7316 84.2744,398.7316 Q84.9053,398.7316 85.4988,398.4618 Q86.0923,398.192 86.7231,397.611 Z " fill="#000000"/><text fill="#000000" font-family="sans-serif" font-size="12" font-style="italic" lengthAdjust="spacing" textLength="73" x="116.25" y="390.4816">&#171;Immutable&#187;</text><text fill="#000000" font-family="sans-serif" font-size="14" lengthAdjust="spacing" textLength="96" x="104.75" y="406.548">Configuration</text><line style="stroke:#7A003C;stroke-width:1.0;" x1="8" x2="265" y1="414.5011" y2="414.5011"/><ellipse cx="18" cy="428.2452" fill="none" rx="3" ry="3" style="stroke:#038048;stroke-width:1.0;"/><text fill="#000000" font-family="sans-serif" font-size="14" lengthAdjust="spacing" textLength="95" x="27" y="432.0362">width: Integer</text><ellipse cx="18" cy="444.7335" fill="none" rx="3" ry="3" style="stroke:#038048;stroke-width:1.0;"/><text fill="#000000" font-family="sans-serif" font-size="14" lengthAdjust="spacing" textLength="101" x="27" y="448.5245">height: Integer</text><ellipse cx="18" cy="461.2218" fill="none" rx="3" ry="3" style="stroke:#038048;stroke-width:1.0;"/><text fill="#000000" font-family="sans-serif" font-size="14" lengthAdjust="spacing" textLength="74" x="27" y="465.0128">seed: Long</text><ellipse cx="18" cy="477.7101" fill="none" rx="3" ry="3" style="stroke:#038048;stroke-width:1.0;"/><text fill="#000000" font-family="sans-serif" font-size="14" lengthAdjust="spacing" textLength="126" x="27" y="481.5011">output: FileStream</text><ellipse cx="18" cy="494.1984" fill="none" rx="3" ry="3" style="stroke:#038048;stroke-width:1.0;"/><text fill="#000000" font-family="sans-serif" font-size="14" lengthAdjust="spacing" textLength="174" x="27" y="497.9894">humanReadable: Boolean</text><line style="stroke:#7A003C;stroke-width:1.0;" x1="8" x2="265" y1="504.9425" y2="504.9425"/><ellipse cx="18" cy="518.6866" fill="#84BE84" rx="3" ry="3" style="stroke:#038048;stroke-width:1.0;"/><text fill="#000000" font-family="sans-serif" font-size="14" lengthAdjust="spacing" text-decoration="underline" textLength="233" x="27" y="522.4777">load(args: String[]): Configuration</text></g><!--class Location--><g id="elem_Location"><rect codeLine="17" fill="#FEECCD" height="130.5742" id="Location" rx="5" ry="5" style="stroke:#7A003C;stroke-width:1.0;" width="215" x="635" y="386.37"/><ellipse cx="703.75" cy="406.6805" fill="#ADD1B2" rx="11" ry="11" style="stroke:#181818;stroke-width:1.0;"/><path d="M706.2231,412.8236 Q705.6421,413.1224 705.0029,413.2719 Q704.3638,413.4213 703.6582,413.4213 Q701.1514,413.4213 699.8315,411.7694 Q698.5117,410.1176 698.5117,406.9965 Q698.5117,403.8671 699.8315,402.2152 Q701.1514,400.5634 703.6582,400.5634 Q704.3638,400.5634 705.0112,400.7128 Q705.6587,400.8622 706.2231,401.161 L706.2231,403.8837 Q705.5923,403.3026 704.9988,403.0328 Q704.4053,402.7631 703.7744,402.7631 Q702.4297,402.7631 701.7449,403.8297 Q701.0601,404.8964 701.0601,406.9965 Q701.0601,409.0883 701.7449,410.1549 Q702.4297,411.2216 703.7744,411.2216 Q704.4053,411.2216 704.9988,410.9518 Q705.5923,410.682 706.2231,410.101 Z " fill="#000000"/><text fill="#000000" font-family="sans-serif" font-size="12" font-style="italic" lengthAdjust="spacing" textLength="73" x="722.25" y="402.9716">&#171;Immutable&#187;</text><text fill="#000000" font-family="sans-serif" font-size="14" lengthAdjust="spacing" textLength="58" x="729.75" y="419.038">Location</text><line style="stroke:#7A003C;stroke-width:1.0;" x1="636" x2="849" y1="426.9911" y2="426.9911"/><ellipse cx="646" cy="440.7352" fill="#84BE84" rx="3" ry="3" style="stroke:#038048;stroke-width:1.0;"/><text fill="#000000" font-family="sans-serif" font-size="14" lengthAdjust="spacing" textLength="173" x="655" y="444.5262">this(x: Integer, y: Integer)</text><line style="stroke:#7A003C;stroke-width:1.0;" x1="636" x2="849" y1="451.4794" y2="451.4794"/><ellipse cx="646" cy="465.2235" fill="#84BE84" rx="3" ry="3" style="stroke:#038048;stroke-width:1.0;"/><text fill="#000000" font-family="sans-serif" font-size="14" lengthAdjust="spacing" textLength="76" x="655" y="469.0145">x(): Integer</text><ellipse cx="646" cy="481.7118" fill="#84BE84" rx="3" ry="3" style="stroke:#038048;stroke-width:1.0;"/><text fill="#000000" font-family="sans-serif" font-size="14" lengthAdjust="spacing" textLength="74" x="655" y="485.5028">y(): Integer</text><line style="stroke:#7A003C;stroke-width:1.0;" x1="636" x2="849" y1="492.4559" y2="492.4559"/><ellipse cx="646" cy="506.2001" fill="#84BE84" rx="3" ry="3" style="stroke:#038048;stroke-width:1.0;"/><text fill="#000000" font-family="sans-serif" font-size="14" lengthAdjust="spacing" textLength="189" x="655" y="509.9911">neighbors(): Set&lt;Location&gt;</text></g><!--class Maze--><g id="elem_Maze"><rect codeLine="27" fill="#FEECCD" height="195.9063" id="Maze" rx="5" ry="5" style="stroke:#7A003C;stroke-width:1.0;" width="357" x="272" y="132.97"/><ellipse cx="428.25" cy="148.97" fill="#ADD1B2" rx="11" ry="11" style="stroke:#181818;stroke-width:1.0;"/><path d="M430.7231,155.1131 Q430.1421,155.4119 429.5029,155.5613 Q428.8638,155.7107 428.1582,155.7107 Q425.6514,155.7107 424.3315,154.0589 Q423.0117,152.407 423.0117,149.2859 Q423.0117,146.1565 424.3315,144.5047 Q425.6514,142.8528 428.1582,142.8528 Q428.8638,142.8528 429.5112,143.0022 Q430.1587,143.1516 430.7231,143.4505 L430.7231,146.1731 Q430.0923,145.5921 429.4988,145.3223 Q428.9053,145.0525 428.2744,145.0525 Q426.9297,145.0525 426.2449,146.1192 Q425.5601,147.1858 425.5601,149.2859 Q425.5601,151.3777 426.2449,152.4444 Q426.9297,153.511 428.2744,153.511 Q428.9053,153.511 429.4988,153.2412 Q430.0923,152.9715 430.7231,152.3904 Z " fill="#000000"/><text fill="#000000" font-family="sans-serif" font-size="14" lengthAdjust="spacing" textLength="36" x="448.75" y="154.261">Maze</text><line style="stroke:#7A003C;stroke-width:1.0;" x1="273" x2="628" y1="164.97" y2="164.97"/><ellipse cx="283" cy="178.7141" fill="#84BE84" rx="3" ry="3" style="stroke:#038048;stroke-width:1.0;"/><text fill="#000000" font-family="sans-serif" font-size="14" lengthAdjust="spacing" textLength="239" x="292" y="182.5052">this(width: Integer, height: Integer)</text><line style="stroke:#7A003C;stroke-width:1.0;" x1="273" x2="628" y1="189.4583" y2="189.4583"/><ellipse cx="283" cy="203.2024" fill="#84BE84" rx="3" ry="3" style="stroke:#038048;stroke-width:1.0;"/><text fill="#000000" font-family="sans-serif" font-size="14" lengthAdjust="spacing" textLength="128" x="292" y="206.9934">getWidth(): Integer</text><ellipse cx="283" cy="219.6907" fill="#84BE84" rx="3" ry="3" style="stroke:#038048;stroke-width:1.0;"/><text fill="#000000" font-family="sans-serif" font-size="14" lengthAdjust="spacing" textLength="134" x="292" y="223.4817">getHeight(): Integer</text><line style="stroke:#7A003C;stroke-width:1.0;" x1="273" x2="628" y1="230.4348" y2="230.4348"/><ellipse cx="283" cy="244.179" fill="#84BE84" rx="3" ry="3" style="stroke:#038048;stroke-width:1.0;"/><text fill="#000000" font-family="sans-serif" font-size="14" lengthAdjust="spacing" textLength="155" x="292" y="247.97">tileAt(y: int, x: int): Tile</text><ellipse cx="283" cy="260.6673" fill="#84BE84" rx="3" ry="3" style="stroke:#038048;stroke-width:1.0;"/><text fill="#000000" font-family="sans-serif" font-size="14" lengthAdjust="spacing" textLength="331" x="292" y="264.4583">neighborsInRange(loc: Location): Set&lt;Location&gt;</text><line style="stroke:#7A003C;stroke-width:1.0;" x1="273" x2="628" y1="271.4114" y2="271.4114"/><ellipse cx="283" cy="285.1555" fill="#84BE84" rx="3" ry="3" style="stroke:#038048;stroke-width:1.0;"/><text fill="#000000" font-family="sans-serif" font-size="14" lengthAdjust="spacing" textLength="165" x="292" y="288.9466">carve(random: Random)</text><ellipse cx="283" cy="301.6438" fill="#84BE84" rx="3" ry="3" style="stroke:#038048;stroke-width:1.0;"/><text fill="#000000" font-family="sans-serif" font-size="14" lengthAdjust="spacing" textLength="139" x="292" y="305.4348">punch(loc: Location)</text><ellipse cx="283" cy="318.1321" fill="#84BE84" rx="3" ry="3" style="stroke:#038048;stroke-width:1.0;"/><text fill="#000000" font-family="sans-serif" font-size="14" lengthAdjust="spacing" textLength="276" x="292" y="321.9231">destroyWall(from: Location, to: Location)</text></g><!--class Tile--><g id="elem_Tile"><rect codeLine="41" fill="#FEECCD" height="72.9766" id="Tile" rx="5" ry="5" style="stroke:#7A003C;stroke-width:1.0;" width="72" x="673.5" y="194.44"/><ellipse cx="695.25" cy="210.44" fill="#EB937F" rx="11" ry="11" style="stroke:#181818;stroke-width:1.0;"/><path d="M698.8643,216.94 L691.1445,216.94 L691.1445,204.5469 L698.8643,204.5469 L698.8643,206.7051 L693.5933,206.7051 L693.5933,209.378 L698.3662,209.378 L698.3662,211.5362 L693.5933,211.5362 L693.5933,214.7818 L698.8643,214.7818 Z " fill="#000000"/><text fill="#000000" font-family="sans-serif" font-size="14" lengthAdjust="spacing" textLength="25" x="710.75" y="215.731">Tile</text><line style="stroke:#7A003C;stroke-width:1.0;" x1="674.5" x2="744.5" y1="226.44" y2="226.44"/><ellipse cx="684.5" cy="240.1841" fill="none" rx="3" ry="3" style="stroke:#038048;stroke-width:1.0;"/><text fill="#000000" font-family="sans-serif" font-size="14" lengthAdjust="spacing" textLength="46" x="693.5" y="243.9752">EMPTY</text><ellipse cx="684.5" cy="256.6724" fill="none" rx="3" ry="3" style="stroke:#038048;stroke-width:1.0;"/><text fill="#000000" font-family="sans-serif" font-size="14" lengthAdjust="spacing" textLength="36" x="693.5" y="260.4634">WALL</text></g><!--class MazeExporter--><g id="elem_MazeExporter"><rect codeLine="50" fill="#FEECCD" height="80.9766" id="MazeExporter" rx="5" ry="5" style="stroke:#7A003C;stroke-width:1.0;" width="374" x="111.5" y="7"/><ellipse cx="246.25" cy="23" fill="#ADD1B2" rx="11" ry="11" style="stroke:#181818;stroke-width:1.0;"/><path d="M248.7231,29.1431 Q248.1421,29.4419 247.5029,29.5913 Q246.8638,29.7407 246.1582,29.7407 Q243.6514,29.7407 242.3315,28.0889 Q241.0117,26.437 241.0117,23.3159 Q241.0117,20.1865 242.3315,18.5347 Q243.6514,16.8828 246.1582,16.8828 Q246.8638,16.8828 247.5112,17.0322 Q248.1587,17.1816 248.7231,17.4805 L248.7231,20.2031 Q248.0923,19.6221 247.4988,19.3523 Q246.9053,19.0825 246.2744,19.0825 Q244.9297,19.0825 244.2449,20.1492 Q243.5601,21.2158 243.5601,23.3159 Q243.5601,25.4077 244.2449,26.4744 Q244.9297,27.541 246.2744,27.541 Q246.9053,27.541 247.4988,27.2712 Q248.0923,27.0015 248.7231,26.4204 Z " fill="#000000"/><text fill="#000000" font-family="sans-serif" font-size="14" lengthAdjust="spacing" textLength="96" x="266.75" y="28.291">MazeExporter</text><line style="stroke:#7A003C;stroke-width:1.0;" x1="112.5" x2="484.5" y1="39" y2="39"/><ellipse cx="122.5" cy="52.7441" fill="#84BE84" rx="3" ry="3" style="stroke:#038048;stroke-width:1.0;"/><text fill="#000000" font-family="sans-serif" font-size="14" lengthAdjust="spacing" textLength="137" x="131.5" y="56.5352">this(theMaze: Maze)</text><line style="stroke:#7A003C;stroke-width:1.0;" x1="112.5" x2="484.5" y1="63.4883" y2="63.4883"/><ellipse cx="122.5" cy="77.2324" fill="#84BE84" rx="3" ry="3" style="stroke:#038048;stroke-width:1.0;"/><text fill="#000000" font-family="sans-serif" font-size="14" lengthAdjust="spacing" textLength="348" x="131.5" y="81.0234">export(out: FileStream, humanReadable?: boolean)</text></g><!--class MazeCarver--><g id="elem_MazeCarver"><rect codeLine="56" fill="#FEECCD" height="56.4883" id="MazeCarver" rx="5" ry="5" style="stroke:#7A003C;stroke-width:1.0;" width="279" x="311" y="423.41"/><ellipse cx="405.75" cy="439.41" fill="#ADD1B2" rx="11" ry="11" style="stroke:#181818;stroke-width:1.0;"/><path d="M408.2231,445.5531 Q407.6421,445.8519 407.0029,446.0013 Q406.3638,446.1507 405.6582,446.1507 Q403.1514,446.1507 401.8315,444.4989 Q400.5117,442.847 400.5117,439.7259 Q400.5117,436.5965 401.8315,434.9447 Q403.1514,433.2928 405.6582,433.2928 Q406.3638,433.2928 407.0112,433.4422 Q407.6587,433.5916 408.2231,433.8905 L408.2231,436.6131 Q407.5923,436.0321 406.9988,435.7623 Q406.4053,435.4925 405.7744,435.4925 Q404.4297,435.4925 403.7449,436.5592 Q403.0601,437.6258 403.0601,439.7259 Q403.0601,441.8177 403.7449,442.8844 Q404.4297,443.951 405.7744,443.951 Q406.4053,443.951 406.9988,443.6812 Q407.5923,443.4115 408.2231,442.8304 Z " fill="#000000"/><text fill="#000000" font-family="sans-serif" font-size="14" lengthAdjust="spacing" textLength="81" x="426.25" y="444.701">MazeCarver</text><line style="stroke:#7A003C;stroke-width:1.0;" x1="312" x2="589" y1="455.41" y2="455.41"/><ellipse cx="322" cy="469.1541" fill="#84BE84" rx="3" ry="3" style="stroke:#038048;stroke-width:1.0;"/><text fill="#000000" font-family="sans-serif" font-size="14" lengthAdjust="spacing" textLength="253" x="331" y="472.9452">carve(theMaze: Maze, rand: Random)</text></g><!--link Maze to Tile--><g id="link_Maze_Tile"><path codeLine="48" d="M641.38,230.93 C650.58,230.93 650.54,230.93 667.13,230.93 " fill="none" id="Maze-Tile" style="stroke:#7A003C;stroke-width:1.0;"/><polygon fill="#7A003C" points="629.38,230.93,635.38,234.93,641.38,230.93,635.38,226.93,629.38,230.93" style="stroke:#7A003C;stroke-width:1.0;"/><polygon fill="#7A003C" points="673.13,230.93,664.13,226.93,668.13,230.93,664.13,234.93,673.13,230.93" style="stroke:#7A003C;stroke-width:1.0;"/><text fill="#000000" font-family="sans-serif" font-size="13" lengthAdjust="spacing" textLength="37" x="628.4945" y="227.2882">tiles *</text></g><!--link Main to Configuration--><g id="link_Main_Configuration"><path codeLine="61" d="M146.11,259.63 C144.67,288.14 142.6715,327.8576 140.6815,367.4076 " fill="none" id="Main-to-Configuration" style="stroke:#7A003C;stroke-width:1.0;stroke-dasharray:7.0,7.0;"/><polygon fill="#7A003C" points="140.38,373.4,144.8272,364.6124,140.6313,368.4063,136.8373,364.2104,140.38,373.4" style="stroke:#7A003C;stroke-width:1.0;"/></g><!--reverse link MazeExporter to Main--><g id="link_MazeExporter_Main"><path codeLine="62" d="M261.5224,92.9123 C232.7924,127.4423 195.79,171.91 170.5,202.29 " fill="none" id="MazeExporter-backto-Main" style="stroke:#7A003C;stroke-width:1.0;stroke-dasharray:7.0,7.0;"/><polygon fill="#7A003C" points="265.36,88.3,256.5288,92.6601,262.162,92.1436,262.6785,97.7768,265.36,88.3" style="stroke:#7A003C;stroke-width:1.0;"/></g><!--link MazeExporter to Maze--><g id="link_MazeExporter_Maze"><path codeLine="63" d="M331.86,88.3 C342.96,101.55 351.9971,112.3406 365.1071,127.9906 " fill="none" id="MazeExporter-to-Maze" style="stroke:#7A003C;stroke-width:1.0;stroke-dasharray:7.0,7.0;"/><polygon fill="#7A003C" points="368.96,132.59,366.2469,123.1222,365.7492,128.7571,360.1143,128.2595,368.96,132.59" style="stroke:#7A003C;stroke-width:1.0;"/></g><!--link Main to Maze--><g id="link_Main_Maze"><path codeLine="64" d="M227.08,230.93 C239.6,230.93 248.5,230.93 248.5,230.93 C248.5,230.93 252.24,230.93 265.67,230.93 " fill="none" id="Main-to-Maze" style="stroke:#7A003C;stroke-width:1.0;stroke-dasharray:7.0,7.0;"/><polygon fill="#7A003C" points="271.67,230.93,262.67,226.93,266.67,230.93,262.67,234.93,271.67,230.93" style="stroke:#7A003C;stroke-width:1.0;"/></g><!--link Maze to MazeCarver--><g id="link_Maze_MazeCarver"><path codeLine="65" d="M450.5,335.14 C450.5,369.37 450.5,393.2 450.5,417.01 " fill="none" id="Maze-MazeCarver" style="stroke:#7A003C;stroke-width:1.0;stroke-dasharray:7.0,7.0;"/><polygon fill="#7A003C" points="450.5,329.14,446.5,338.14,450.5,334.14,454.5,338.14,450.5,329.14" style="stroke:#7A003C;stroke-width:1.0;"/><polygon fill="#7A003C" points="450.5,423.01,454.5,414.01,450.5,418.01,446.5,414.01,450.5,423.01" style="stroke:#7A003C;stroke-width:1.0;"/></g><!--link Maze to Location--><g id="link_Maze_Location"><path codeLine="66" d="M580.28,329.14 C606.02,348.42 627.6383,364.6123 651.4883,382.4823 " fill="none" id="Maze-to-Location" style="stroke:#7A003C;stroke-width:1.0;stroke-dasharray:7.0,7.0;"/><polygon fill="#7A003C" points="656.29,386.08,651.486,377.4823,652.2886,383.0819,646.689,383.8845,656.29,386.08" style="stroke:#7A003C;stroke-width:1.0;"/></g><!--link MazeCarver to Location--><g id="link_MazeCarver_Location"><path codeLine="67" d="M590.24,451.65 C606.64,451.65 617.99,451.65 628.7,451.65 " fill="none" id="MazeCarver-to-Location" style="stroke:#7A003C;stroke-width:1.0;stroke-dasharray:7.0,7.0;"/><polygon fill="#7A003C" points="634.7,451.65,625.7,447.65,629.7,451.65,625.7,455.65,634.7,451.65" style="stroke:#7A003C;stroke-width:1.0;"/></g><!--SRC=[VLHDRzim3BtxLt2zrCbizsuO7hgYmmAam90M28PX1yLcRG6o54XobxJeVvyaVyHIiULYXtmattkK_8doYlKrGdPpx3kMANrc64KL8qh10w4StY8mly_mfZJHj7g7paHZ8XkLmwEMb3U_Vg-YzwdcJl1dslJIO0M7ejXqNQ_9WM5Ppgt-q5gtEMounWRb66oHDgqEemgnpc4hU3C6HA-FlO5zempDU2JTLDztXE-Gr7PO3b-5O4YuIwPfg849KeSQSf_xHT9MLFzJerkgujDCF87p_Bxonv_YLQZl78PcCBT-78HK5l68kfXeb9RPlA5Nz8dutYQXhG6Z1lNU5dmaPZBVNUa_2MgpWLiT6xMKwmHExcd0JoOUQjZm7U4DnanK-Upd1rrU-uh85umbuRNeSjYvvshC7NjUjK6pCLMZqbASzuIn-5dQqWcHW1PBl74HUTyvlhE7zmy_ddwEx_lRxTQYhXq2hgnW1UihAD9qxQoF8hU0TLekiax_OZ_tfwEG6gM_9zsYJUOE4cm5NKKi_7EU-4VyImw7uOmlRfzjTcUDkqmRVFJ69M1jlPXgpvExwrbM1fV04r1acVic-55RvCmOMin_Z375b1iu3K4JcfOGBVWkmty1]--></g></svg>