<?xml version="1.0" encoding="us-ascii" standalone="no"?><svg xmlns="http://www.w3.org/2000/svg" xmlns:xlink="http://www.w3.org/1999/xlink" contentStyleType="text/css" height="295px" preserveAspectRatio="none" style="width:787px;height:295px;background:#FFFFFF;" version="1.1" viewBox="0 0 787 295" width="787px" zoomAndPan="magnify"><defs/><g><!--class Main--><g id="elem_Main"><rect codeLine="3" fill="#FEECCD" height="56.4883" id="Main" rx="5" ry="5" style="stroke:#7A003C;stroke-width:1.0;" width="159" x="311" y="182.51"/><ellipse cx="369.75" cy="198.51" fill="#ADD1B2" rx="11" ry="11" style="stroke:#181818;stroke-width:1.0;"/><path d="M372.2231,204.6531 Q371.6421,204.9519 371.0029,205.1013 Q370.3638,205.2507 369.6582,205.2507 Q367.1514,205.2507 365.8315,203.5989 Q364.5117,201.947 364.5117,198.8259 Q364.5117,195.6965 365.8315,194.0447 Q367.1514,192.3928 369.6582,192.3928 Q370.3638,192.3928 371.0112,192.5422 Q371.6587,192.6916 372.2231,192.9905 L372.2231,195.7131 Q371.5923,195.1321 370.9988,194.8623 Q370.4053,194.5925 369.7744,194.5925 Q368.4297,194.5925 367.7449,195.6592 Q367.0601,196.7258 367.0601,198.8259 Q367.0601,200.9177 367.7449,201.9844 Q368.4297,203.051 369.7744,203.051 Q370.4053,203.051 370.9988,202.7812 Q371.5923,202.5115 372.2231,201.9304 Z " fill="#000000"/><text fill="#000000" font-family="sans-serif" font-size="14" lengthAdjust="spacing" textLength="33" x="390.25" y="203.801">Main</text><line style="stroke:#7A003C;stroke-width:1.0;" x1="312" x2="469" y1="214.51" y2="214.51"/><ellipse cx="322" cy="228.2541" fill="#84BE84" rx="3" ry="3" style="stroke:#038048;stroke-width:1.0;"/><text fill="#000000" font-family="sans-serif" font-size="14" lengthAdjust="spacing" text-decoration="underline" textLength="133" x="331" y="232.0452">main(args: String[])</text></g><!--class Configuration--><g id="elem_Configuration"><rect codeLine="7" fill="#FEECCD" height="155.5508" id="Configuration" rx="5" ry="5" style="stroke:#7A003C;stroke-width:1.0;" width="259" x="7" y="132.98"/><ellipse cx="84.25" cy="153.2905" fill="#ADD1B2" rx="11" ry="11" style="stroke:#181818;stroke-width:1.0;"/><path d="M86.7231,159.4336 Q86.1421,159.7324 85.5029,159.8819 Q84.8638,160.0313 84.1582,160.0313 Q81.6514,160.0313 80.3315,158.3794 Q79.0117,156.7276 79.0117,153.6065 Q79.0117,150.4771 80.3315,148.8252 Q81.6514,147.1734 84.1582,147.1734 Q84.8638,147.1734 85.5112,147.3228 Q86.1587,147.4722 86.7231,147.771 L86.7231,150.4937 Q86.0923,149.9126 85.4988,149.6428 Q84.9053,149.3731 84.2744,149.3731 Q82.9297,149.3731 82.2449,150.4397 Q81.5601,151.5064 81.5601,153.6065 Q81.5601,155.6983 82.2449,156.7649 Q82.9297,157.8316 84.2744,157.8316 Q84.9053,157.8316 85.4988,157.5618 Q86.0923,157.292 86.7231,156.711 Z " fill="#000000"/><text fill="#000000" font-family="sans-serif" font-size="12" font-style="italic" lengthAdjust="spacing" textLength="73" x="116.25" y="149.5816">&#171;Immutable&#187;</text><text fill="#000000" font-family="sans-serif" font-size="14" lengthAdjust="spacing" textLength="96" x="104.75" y="165.648">Configuration</text><line style="stroke:#7A003C;stroke-width:1.0;" x1="8" x2="265" y1="173.6011" y2="173.6011"/><ellipse cx="18" cy="187.3452" fill="none" rx="3" ry="3" style="stroke:#038048;stroke-width:1.0;"/><text fill="#000000" font-family="sans-serif" font-size="14" lengthAdjust="spacing" textLength="95" x="27" y="191.1362">width: Integer</text><ellipse cx="18" cy="203.8335" fill="none" rx="3" ry="3" style="stroke:#038048;stroke-width:1.0;"/><text fill="#000000" font-family="sans-serif" font-size="14" lengthAdjust="spacing" textLength="101" x="27" y="207.6245">height: Integer</text><ellipse cx="18" cy="220.3218" fill="none" rx="3" ry="3" style="stroke:#038048;stroke-width:1.0;"/><text fill="#000000" font-family="sans-serif" font-size="14" lengthAdjust="spacing" textLength="74" x="27" y="224.1128">seed: Long</text><ellipse cx="18" cy="236.8101" fill="none" rx="3" ry="3" style="stroke:#038048;stroke-width:1.0;"/><text fill="#000000" font-family="sans-serif" font-size="14" lengthAdjust="spacing" textLength="126" x="27" y="240.6011">output: FileStream</text><ellipse cx="18" cy="253.2984" fill="none" rx="3" ry="3" style="stroke:#038048;stroke-width:1.0;"/><text fill="#000000" font-family="sans-serif" font-size="14" lengthAdjust="spacing" textLength="174" x="27" y="257.0894">humanReadable: Boolean</text><line style="stroke:#7A003C;stroke-width:1.0;" x1="8" x2="265" y1="264.0425" y2="264.0425"/><ellipse cx="18" cy="277.7866" fill="#84BE84" rx="3" ry="3" style="stroke:#038048;stroke-width:1.0;"/><text fill="#000000" font-family="sans-serif" font-size="14" lengthAdjust="spacing" text-decoration="underline" textLength="233" x="27" y="281.5777">load(args: String[]): Configuration</text></g><!--class Maze--><g id="elem_Maze"><rect codeLine="17" fill="#FEECCD" height="80.9766" id="Maze" rx="5" ry="5" style="stroke:#7A003C;stroke-width:1.0;" width="265" x="515" y="170.27"/><ellipse cx="625.25" cy="186.27" fill="#ADD1B2" rx="11" ry="11" style="stroke:#181818;stroke-width:1.0;"/><path d="M627.7231,192.4131 Q627.1421,192.7119 626.5029,192.8613 Q625.8638,193.0107 625.1582,193.0107 Q622.6514,193.0107 621.3315,191.3589 Q620.0117,189.707 620.0117,186.5859 Q620.0117,183.4565 621.3315,181.8047 Q622.6514,180.1528 625.1582,180.1528 Q625.8638,180.1528 626.5112,180.3022 Q627.1587,180.4516 627.7231,180.7505 L627.7231,183.4731 Q627.0923,182.8921 626.4988,182.6223 Q625.9053,182.3525 625.2744,182.3525 Q623.9297,182.3525 623.2449,183.4192 Q622.5601,184.4858 622.5601,186.5859 Q622.5601,188.6777 623.2449,189.7444 Q623.9297,190.811 625.2744,190.811 Q625.9053,190.811 626.4988,190.5412 Q627.0923,190.2715 627.7231,189.6904 Z " fill="#000000"/><text fill="#000000" font-family="sans-serif" font-size="14" lengthAdjust="spacing" textLength="36" x="645.75" y="191.561">Maze</text><line style="stroke:#7A003C;stroke-width:1.0;" x1="516" x2="779" y1="202.27" y2="202.27"/><ellipse cx="526" cy="216.0141" fill="#84BE84" rx="3" ry="3" style="stroke:#038048;stroke-width:1.0;"/><text fill="#000000" font-family="sans-serif" font-size="14" lengthAdjust="spacing" textLength="239" x="535" y="219.8052">this(width: Integer, height: Integer)</text><line style="stroke:#7A003C;stroke-width:1.0;" x1="516" x2="779" y1="226.7583" y2="226.7583"/><ellipse cx="526" cy="240.5024" fill="#84BE84" rx="3" ry="3" style="stroke:#038048;stroke-width:1.0;"/><text fill="#000000" font-family="sans-serif" font-size="14" lengthAdjust="spacing" textLength="165" x="535" y="244.2934">carve(random: Random)</text></g><!--class MazeExporter--><g id="elem_MazeExporter"><rect codeLine="23" fill="#FEECCD" height="80.9766" id="MazeExporter" rx="5" ry="5" style="stroke:#7A003C;stroke-width:1.0;" width="374" x="331.5" y="7"/><ellipse cx="466.25" cy="23" fill="#ADD1B2" rx="11" ry="11" style="stroke:#181818;stroke-width:1.0;"/><path d="M468.7231,29.1431 Q468.1421,29.4419 467.5029,29.5913 Q466.8638,29.7407 466.1582,29.7407 Q463.6514,29.7407 462.3315,28.0889 Q461.0117,26.437 461.0117,23.3159 Q461.0117,20.1865 462.3315,18.5347 Q463.6514,16.8828 466.1582,16.8828 Q466.8638,16.8828 467.5112,17.0322 Q468.1587,17.1816 468.7231,17.4805 L468.7231,20.2031 Q468.0923,19.6221 467.4988,19.3523 Q466.9053,19.0825 466.2744,19.0825 Q464.9297,19.0825 464.2449,20.1492 Q463.5601,21.2158 463.5601,23.3159 Q463.5601,25.4077 464.2449,26.4744 Q464.9297,27.541 466.2744,27.541 Q466.9053,27.541 467.4988,27.2712 Q468.0923,27.0015 468.7231,26.4204 Z " fill="#000000"/><text fill="#000000" font-family="sans-serif" font-size="14" lengthAdjust="spacing" textLength="96" x="486.75" y="28.291">MazeExporter</text><line style="stroke:#7A003C;stroke-width:1.0;" x1="332.5" x2="704.5" y1="39" y2="39"/><ellipse cx="342.5" cy="52.7441" fill="#84BE84" rx="3" ry="3" style="stroke:#038048;stroke-width:1.0;"/><text fill="#000000" font-family="sans-serif" font-size="14" lengthAdjust="spacing" textLength="137" x="351.5" y="56.5352">this(theMaze: Maze)</text><line style="stroke:#7A003C;stroke-width:1.0;" x1="332.5" x2="704.5" y1="63.4883" y2="63.4883"/><ellipse cx="342.5" cy="77.2324" fill="#84BE84" rx="3" ry="3" style="stroke:#038048;stroke-width:1.0;"/><text fill="#000000" font-family="sans-serif" font-size="14" lengthAdjust="spacing" textLength="348" x="351.5" y="81.0234">export(out: FileStream, humanReadable?: boolean)</text></g><!--reverse link Configuration to Main--><g id="link_Configuration_Main"><path codeLine="32" d="M272.47,210.75 C292.6,210.75 305.83,210.75 305.83,210.75 C305.83,210.75 307.7,210.75 310.88,210.75 " fill="none" id="Configuration-backto-Main" style="stroke:#7A003C;stroke-width:1.0;stroke-dasharray:7.0,7.0;"/><polygon fill="#7A003C" points="266.47,210.75,275.47,214.75,271.47,210.75,275.47,206.75,266.47,210.75" style="stroke:#7A003C;stroke-width:1.0;"/></g><!--reverse link MazeExporter to Main--><g id="link_MazeExporter_Main"><path codeLine="34" d="M483.1297,93.0494 C459.8797,122.3394 432.64,156.67 412.16,182.47 " fill="none" id="MazeExporter-backto-Main" style="stroke:#7A003C;stroke-width:1.0;stroke-dasharray:7.0,7.0;"/><polygon fill="#7A003C" points="486.86,88.35,478.1315,92.9122,483.7514,92.2662,484.3974,97.886,486.86,88.35" style="stroke:#7A003C;stroke-width:1.0;"/></g><!--link MazeExporter to Maze--><g id="link_MazeExporter_Maze"><path codeLine="35" d="M550.39,88.35 C570.23,113.16 591.9223,140.2744 611.7823,165.1044 " fill="none" id="MazeExporter-to-Maze" style="stroke:#7A003C;stroke-width:1.0;stroke-dasharray:7.0,7.0;"/><polygon fill="#7A003C" points="615.53,169.79,613.0322,160.2632,612.4069,165.8853,606.7847,165.2601,615.53,169.79" style="stroke:#7A003C;stroke-width:1.0;"/></g><!--link Main to Maze--><g id="link_Main_Maze"><path codeLine="36" d="M470.28,210.75 C473.97,210.75 476.17,210.75 476.17,210.75 C476.17,210.75 488.99,210.75 508.99,210.75 " fill="none" id="Main-to-Maze" style="stroke:#7A003C;stroke-width:1.0;stroke-dasharray:7.0,7.0;"/><polygon fill="#7A003C" points="514.99,210.75,505.99,206.75,509.99,210.75,505.99,214.75,514.99,210.75" style="stroke:#7A003C;stroke-width:1.0;"/></g><!--SRC=[NL79QiCm4BthAwQdsZHnxyAuqD92eBcanzB3n9xO0Yr6IxUGVw-jE2dIN8JUl7blbXkXMnawWkf-34fMplz8OgoLw1niKMWuCfZY3exEenVj2TI45cXxn-7DMw7xzu-IdIurJqOVH1_in3KQwdgZLF2ubzGqLwalqVc1mqPxwiaku42Y7toEEgAEmwlH_GAOuCSmqLw4fCcUK5tgWqAz8-ncCmwFnaX27PFhTJw3DDZbC_2qz_-HjlXBrzxz85oH3h3AUozJrnRj9nKMTMSKXrryorJ- -NiqrfDDRVn0Sv97IYPAiQ8mwIvMwHeUEEpFUuX-KsJdgUADsMsyT5KrsGgIrkfgOIVeN3G3x2onVDWV]--></g></svg>